<svg width="269" height="120" viewBox="0 0 269 120" fill="none" xmlns="http://www.w3.org/2000/svg">
<g clip-path="url(#clip0_62_2898)">
<path d="M22.2513 104.741C19.3009 109.502 16.3545 114.267 13.3404 119.134C10.3384 114.287 7.39192 109.538 4.33415 104.603C4.31427 105.051 4.29439 105.301 4.29439 105.555C4.29439 109.939 4.27451 114.322 4.31029 118.706C4.31825 119.412 4.0916 119.567 3.44346 119.532C2.45734 119.48 1.47122 119.508 0.481128 119.524C0.139167 119.532 -0.0238613 119.44 0.0119253 119.075C0.0357831 118.805 0.0159016 118.535 0.0159016 118.261C0.0159016 109.792 0.0159016 101.319 0.0159016 92.8499C0.0159016 92.703 -3.52878e-06 92.5521 0.0198779 92.4052C0.0437357 92.1987 -0.103387 91.8969 0.13519 91.8096C0.441365 91.6945 0.524867 92.0399 0.648132 92.2305C4.60454 98.2299 8.55697 104.229 12.5054 110.237C13.3245 111.483 13.3206 111.495 14.1516 110.237C18.0881 104.253 22.0207 98.2696 25.9652 92.29C26.1004 92.0875 26.1759 91.6905 26.5179 91.8136C26.7883 91.9128 26.6451 92.2543 26.6451 92.4806C26.6531 101.247 26.6451 110.014 26.665 118.777C26.665 119.412 26.4781 119.563 25.8777 119.532C24.9671 119.48 24.0486 119.48 23.142 119.532C22.5376 119.567 22.3587 119.412 22.3627 118.777C22.3945 114.346 22.3786 109.911 22.3786 105.48C22.3786 105.242 22.3786 105 22.3786 104.761C22.3388 104.757 22.2951 104.749 22.2513 104.741Z" fill="white"/>
<path d="M74.8258 104.741C71.8754 109.502 68.929 114.267 65.911 119.134C62.9089 114.29 59.9625 109.538 57.016 104.785C56.9643 104.789 56.9126 104.797 56.8609 104.801C56.8609 105.051 56.8609 105.301 56.8609 105.551C56.8609 109.959 56.849 114.366 56.8769 118.773C56.8808 119.404 56.6939 119.563 56.0935 119.527C55.183 119.476 54.2644 119.456 53.3578 119.531C52.6461 119.591 52.5785 119.301 52.5785 118.702C52.5984 111.241 52.5904 103.781 52.5904 96.32C52.5904 95.0137 52.5864 93.7114 52.5944 92.4051C52.5944 92.1986 52.4711 91.8969 52.7057 91.8056C53.0119 91.6864 53.0954 92.0319 53.2187 92.2225C55.676 95.9388 58.1254 99.6592 60.5748 103.38C62.213 105.865 63.8592 108.347 65.4776 110.844C65.8036 111.348 65.9507 111.424 66.3245 110.852C70.3923 104.63 74.4839 98.4283 78.5755 92.2225C78.6987 92.0358 78.7743 91.6864 79.0884 91.8016C79.3469 91.8929 79.2157 92.1947 79.2157 92.3972C79.2236 101.212 79.2157 110.026 79.2355 118.841C79.2355 119.412 79.0685 119.547 78.5278 119.524C77.5933 119.48 76.647 119.456 75.7165 119.531C75.0087 119.587 74.9332 119.301 74.9372 118.702C74.961 114.219 74.9491 109.74 74.9491 105.258C74.9491 105.091 74.9491 104.924 74.9491 104.757C74.9133 104.757 74.8696 104.749 74.8258 104.741Z" fill="white"/>
<path d="M31.862 105.925C31.862 101.64 31.87 97.3523 31.8501 93.0682C31.8461 92.5361 31.9177 92.3098 32.5499 92.3138C37.4845 92.3455 42.423 92.3416 47.3616 92.3177C47.9382 92.3138 48.0654 92.4845 48.0415 93.0205C47.9978 93.9774 48.0018 94.9422 48.0415 95.9031C48.0614 96.4193 47.8984 96.5701 47.3815 96.5662C43.9022 96.5463 40.419 96.5741 36.9397 96.5384C36.2956 96.5304 36.1007 96.6813 36.1166 97.3444C36.1644 99.2145 36.1524 101.089 36.1206 102.959C36.1127 103.447 36.2638 103.574 36.7409 103.57C39.7271 103.55 42.7133 103.574 45.6995 103.546C46.2283 103.542 46.4431 103.638 46.4113 104.221C46.3596 105.202 46.3675 106.191 46.4073 107.175C46.4272 107.699 46.2562 107.834 45.7432 107.83C42.7809 107.807 39.8186 107.834 36.8562 107.807C36.2876 107.803 36.1007 107.938 36.1127 108.533C36.1524 110.526 36.1564 112.524 36.1127 114.517C36.0968 115.16 36.3115 115.275 36.9039 115.267C40.3593 115.239 43.8147 115.271 47.2701 115.239C47.8984 115.235 48.0694 115.414 48.0376 116.022C47.9859 116.931 47.9859 117.844 48.0376 118.753C48.0733 119.357 47.9143 119.539 47.2781 119.531C43.5006 119.5 39.7271 119.516 35.9496 119.516C34.8403 119.516 33.7269 119.48 32.6175 119.531C32.0131 119.559 31.8342 119.408 31.8382 118.777C31.8739 114.493 31.862 110.209 31.862 105.925Z" fill="white"/>
<path d="M127.981 105.893C127.981 101.609 127.993 97.3205 127.965 93.0364C127.961 92.4369 128.144 92.3138 128.709 92.3177C133.619 92.3376 138.534 92.3376 143.445 92.3177C143.977 92.3138 144.188 92.421 144.156 93.0007C144.105 93.9575 144.109 94.9224 144.156 95.8793C144.184 96.455 143.977 96.5781 143.441 96.5741C139.985 96.5503 136.53 96.5781 133.075 96.5503C132.45 96.5463 132.216 96.6694 132.235 97.3523C132.287 99.1748 132.283 100.997 132.235 102.82C132.22 103.459 132.43 103.582 133.027 103.578C135.937 103.546 138.852 103.582 141.763 103.55C142.395 103.542 142.558 103.729 142.526 104.336C142.474 105.269 142.478 106.21 142.526 107.144C142.554 107.699 142.379 107.85 141.822 107.846C138.884 107.819 135.949 107.85 133.011 107.819C132.387 107.811 132.228 107.989 132.239 108.601C132.279 110.594 132.275 112.591 132.239 114.584C132.228 115.152 132.406 115.279 132.951 115.275C136.43 115.251 139.914 115.279 143.393 115.247C144.025 115.243 144.188 115.438 144.156 116.037C144.109 117.022 144.125 118.007 144.152 118.991C144.164 119.412 144.025 119.535 143.608 119.535C138.574 119.523 133.536 119.516 128.502 119.543C127.874 119.547 127.985 119.19 127.985 118.833C127.981 114.513 127.981 110.201 127.981 105.893Z" fill="white"/>
<path d="M230.764 105.881C230.764 101.597 230.772 97.3087 230.752 93.0245C230.748 92.4964 230.847 92.3098 231.432 92.3138C236.371 92.3376 241.305 92.3376 246.244 92.3138C246.796 92.3098 246.971 92.4488 246.943 93.0086C246.896 93.9179 246.876 94.8351 246.947 95.7403C247.003 96.4669 246.709 96.5781 246.069 96.5741C242.661 96.5463 239.257 96.5781 235.85 96.5463C235.206 96.5384 235.007 96.6972 235.023 97.3603C235.07 99.1827 235.058 101.005 235.027 102.828C235.015 103.387 235.146 103.582 235.75 103.574C238.689 103.542 241.623 103.574 244.562 103.546C245.118 103.542 245.349 103.654 245.313 104.265C245.258 105.246 245.273 106.234 245.309 107.219C245.329 107.723 245.138 107.834 244.669 107.83C241.731 107.815 238.792 107.846 235.858 107.803C235.146 107.791 235.011 108.025 235.023 108.672C235.062 110.566 235.082 112.468 235.015 114.362C234.987 115.156 235.257 115.275 235.965 115.267C239.373 115.231 242.776 115.263 246.184 115.239C246.749 115.235 246.971 115.355 246.94 115.966C246.888 116.947 246.9 117.935 246.936 118.92C246.955 119.424 246.765 119.528 246.299 119.528C241.337 119.512 236.375 119.508 231.416 119.535C230.816 119.539 230.748 119.321 230.748 118.813C230.772 114.501 230.764 110.193 230.764 105.881Z" fill="white"/>
<path d="M88.5838 106.449C88.5838 110.689 88.5719 114.727 88.5997 118.765C88.6037 119.369 88.4724 119.575 87.8402 119.536C86.8819 119.476 85.9157 119.492 84.9534 119.532C84.4246 119.555 84.2973 119.385 84.3013 118.872C84.3212 114.612 84.3132 110.352 84.3132 106.091C84.3132 101.732 84.3212 97.3763 84.3013 93.0167C84.2973 92.4767 84.4206 92.2861 84.9892 92.3139C85.9753 92.3615 86.9654 92.3576 87.9476 92.3139C88.4764 92.2901 88.5997 92.4568 88.5957 92.969C88.5758 96.8363 88.5838 100.7 88.5838 104.567C88.5838 104.734 88.5838 104.9 88.5838 105.266C89.049 104.63 89.4069 104.15 89.7568 103.666C92.3255 100.084 94.9021 96.5067 97.4549 92.9174C97.7571 92.4926 98.0553 92.298 98.5921 92.3139C99.9719 92.3536 101.352 92.3258 102.747 92.3258C102.791 92.6911 102.513 92.8737 102.354 93.0961C99.4748 97.0904 96.596 101.085 93.6893 105.059C93.3593 105.512 93.3394 105.79 93.6933 106.25C97.0692 110.614 100.413 114.997 103.817 119.44C103.093 119.591 102.417 119.504 101.749 119.512C100.715 119.524 99.5265 119.813 98.6836 119.405C97.8485 119 97.3555 117.884 96.7272 117.066C94.1506 113.703 91.5779 110.34 89.0053 106.977C88.9098 106.846 88.8025 106.719 88.5838 106.449Z" fill="white"/>
<path d="M114.533 119.976C111.487 119.936 108.755 119.103 106.584 116.847C106.103 116.347 105.718 115.779 105.356 115.188C105.173 114.894 105.149 114.699 105.491 114.469C106.39 113.866 107.268 113.226 108.135 112.575C108.453 112.337 108.592 112.397 108.803 112.718C110.899 115.867 115.153 116.3 117.913 114.942C120.394 113.723 120.668 111.428 118.565 109.629C117.312 108.561 115.817 107.91 114.33 107.255C112.867 106.608 111.4 105.972 110.008 105.17C104.739 102.145 105.825 95.5497 110.159 93.1754C113.209 91.5078 116.366 91.3887 119.539 92.7863C121.102 93.4732 122.227 94.6604 122.967 96.2128C123.154 96.6059 123.094 96.8282 122.736 97.0585C121.953 97.5707 121.177 98.0948 120.426 98.6547C120.072 98.9207 119.941 98.8492 119.718 98.4919C118.08 95.8991 114.517 95.2678 112.088 97.1181C110.33 98.4561 110.37 100.489 112.195 101.72C113.408 102.538 114.795 103.002 116.128 103.574C118.008 104.384 119.881 105.214 121.492 106.508C125.631 109.828 125.122 115.843 120.486 118.511C118.652 119.575 116.644 119.992 114.533 119.976Z" fill="white"/>
<path d="M259.254 119.976C256.208 119.944 253.477 119.115 251.302 116.867C250.749 116.296 250.053 115.668 250.001 114.946C249.942 114.144 251.031 114.005 251.568 113.512C252.017 113.099 252.534 112.563 253.075 112.496C253.667 112.424 253.858 113.278 254.276 113.683C256.439 115.791 260.224 116.315 262.861 114.822C265.06 113.576 265.298 111.42 263.405 109.74C262.133 108.613 260.59 107.942 259.059 107.263C257.596 106.615 256.133 105.976 254.737 105.182C249.441 102.165 250.514 95.5259 254.912 93.1516C257.942 91.5157 261.075 91.3966 264.228 92.7744C265.743 93.4374 266.849 94.573 267.608 96.054C267.851 96.5265 267.863 96.8282 267.35 97.134C266.61 97.5747 265.906 98.0789 265.219 98.5951C264.853 98.8691 264.69 98.9167 264.399 98.4522C262.849 95.9547 259.342 95.2996 256.936 97.0148C255.007 98.3926 255.035 100.501 257.008 101.787C258.188 102.558 259.528 103.01 260.813 103.566C262.602 104.336 264.348 105.174 265.95 106.306C270.511 109.534 269.744 116.01 265.155 118.539C263.314 119.559 261.342 119.988 259.254 119.976Z" fill="white"/>
<path d="M224.959 112.428C225.73 113.508 226.478 114.576 227.249 115.625C227.511 115.982 227.209 116.097 227.026 116.272C222.959 120.187 217.181 121.096 212.032 118.638C206.699 116.093 203.534 110.646 203.976 104.777C204.536 97.3325 211.236 91.4522 218.728 91.9049C221.98 92.1034 224.728 93.5208 227.114 95.6967C227.428 95.9825 227.34 96.1692 227.142 96.4352C226.505 97.2809 225.865 98.1226 225.253 98.9882C225.014 99.3297 224.875 99.3694 224.545 99.0597C223.213 97.809 221.686 96.86 219.881 96.4789C215.944 95.6411 212.767 97.0387 210.358 100.092C207.94 103.161 207.515 106.619 209.284 110.129C211.038 113.608 213.956 115.541 217.905 115.656C220.362 115.728 222.426 114.62 224.255 113.056C224.481 112.865 224.696 112.667 224.959 112.428Z" fill="white"/>
<path d="M167.386 92.3297C168.825 92.3297 170.205 92.3416 171.581 92.3217C171.99 92.3138 172.05 92.5838 172.169 92.8538C174.519 98.1861 176.869 103.515 179.219 108.843C179.454 109.379 179.696 109.915 180.003 110.598C180.285 109.975 180.508 109.478 180.726 108.982C183.076 103.677 185.434 98.3767 187.76 93.0642C187.999 92.5163 188.269 92.282 188.894 92.3098C190.122 92.3654 191.359 92.3257 192.588 92.3257C192.707 92.5639 192.544 92.7188 192.472 92.8816C188.468 101.728 184.46 110.57 180.448 119.412C180.353 119.623 180.341 119.956 180.046 119.976C179.685 120.004 179.673 119.627 179.573 119.404C175.585 110.578 171.605 101.752 167.624 92.9213C167.545 92.7505 167.481 92.5679 167.386 92.3297Z" fill="white"/>
<path d="M152.181 42.1944C155.366 42.1666 158.547 42.1627 161.732 42.1944C162.356 42.2024 162.507 42.0197 162.503 41.4122C162.483 34.6664 162.491 27.9166 162.487 21.1667C162.487 14.3693 162.479 7.57179 162.499 0.774316C162.499 0.166832 162.348 -0.0118402 161.728 -0.00389924C158.543 0.0278646 155.362 0.0238942 152.177 -0.00389924C151.568 -0.00786973 151.385 0.158891 151.385 0.778286C151.401 14.3216 151.401 27.8689 151.381 41.4122C151.381 42.0515 151.58 42.1984 152.181 42.1944Z" fill="white"/>
<path d="M161.72 48.3725C154.539 48.3805 147.357 48.3567 140.18 48.3487C132.705 48.3408 125.225 48.3447 117.75 48.3408C117.456 48.3408 117.161 48.309 116.867 48.2931C117.058 47.2012 117.547 46.2126 117.961 45.1961C118.008 45.1406 118.064 45.0889 118.096 45.0294C120.275 41.1224 123.587 38.5496 127.687 36.8978C130.375 35.9092 133.166 35.7742 135.989 35.8734C136.776 35.9012 137.568 35.8615 138.355 35.8814C138.709 35.8893 138.82 35.7623 138.82 35.4129C138.808 32.0419 138.804 28.667 138.82 25.2961C138.824 24.8077 138.562 24.8077 138.212 24.8117C136.733 24.8196 135.254 24.8037 133.77 24.8156C131.301 24.8355 128.852 25.0737 126.454 25.6971C122.76 26.654 119.38 28.2461 116.442 30.7078C115.702 31.1605 115.09 31.768 114.473 32.3596C111.988 34.7299 109.841 37.3624 108.314 40.4594C106.859 43.1156 105.984 45.9664 105.467 48.9363C104.914 52.1326 105.062 55.3606 105.006 58.5807C104.994 59.2834 105.217 59.4105 105.865 59.4105C118.37 59.3906 130.876 59.3946 143.381 59.3906C143.628 59.3906 143.874 59.3748 144.121 59.3628C146.109 59.3748 148.093 59.4025 150.081 59.3867C150.63 59.3827 150.721 59.5336 150.515 60.014C150.184 60.7724 149.894 61.5506 149.584 62.3209C148.594 64.0599 147.425 65.66 145.926 67.01C142.423 70.1626 138.367 71.9175 133.595 71.9135C124.343 71.9056 115.086 71.9175 105.833 71.8977C105.217 71.8977 104.994 71.9969 105.006 72.6838C105.05 75.8364 105.05 78.989 105.006 82.1376C104.998 82.8443 105.221 82.9714 105.869 82.9674C115.297 82.9475 124.724 82.9634 134.148 82.9475C137.48 82.9436 140.729 82.3917 143.822 81.141C150.733 78.3497 155.875 73.5891 159.398 67.0576C161.107 64.0083 161.99 60.7088 162.34 57.2545C162.614 54.5546 162.416 51.8427 162.495 49.1388C162.515 48.5115 162.328 48.3725 161.72 48.3725Z" fill="white"/>
<path d="M128.557 20.043C131.79 20.0152 135.019 20.0192 138.252 20.0391C138.753 20.043 138.932 19.9239 138.928 19.3919C138.908 13.1661 138.908 6.93645 138.928 0.71073C138.928 0.146922 138.749 0.00398404 138.212 0.00795452C134.979 0.027807 131.75 0.0317774 128.518 0.00398404C127.965 1.35512e-05 127.81 0.146922 127.818 0.702789C127.846 3.80374 127.83 6.90469 127.83 10.0056C127.83 13.1066 127.846 16.2075 127.814 19.3085C127.81 19.9001 127.981 20.047 128.557 20.043Z" fill="white"/>
<path d="M105.602 20.0271C108.835 20.0072 112.068 20.0033 115.3 20.0271C115.861 20.0311 116.004 19.8762 115.996 19.3243C115.968 16.2472 115.984 13.1661 115.98 10.089C115.98 6.9364 115.968 3.78383 115.992 0.631263C115.996 0.138923 115.849 0.00392647 115.368 0.00789696C112.111 0.0237789 108.851 0.0277494 105.594 0.00789696C105.05 0.00392647 104.879 0.154805 104.879 0.714643C104.895 6.92051 104.895 13.1264 104.875 19.3323C104.875 19.9 105.069 20.0311 105.602 20.0271Z" fill="white"/>
<path d="M200.087 105.921C200.087 110.205 200.075 114.485 200.103 118.769C200.107 119.401 199.916 119.559 199.316 119.532C198.306 119.484 197.292 119.508 196.282 119.524C195.94 119.528 195.769 119.428 195.812 119.067C195.828 118.944 195.812 118.821 195.812 118.698C195.812 110.181 195.82 101.664 195.796 93.1477C195.793 92.4608 195.987 92.2663 196.651 92.3139C197.51 92.3695 198.381 92.3695 199.24 92.3139C199.896 92.2742 200.111 92.445 200.107 93.1477C200.067 97.4041 200.087 101.664 200.087 105.921Z" fill="white"/>
<path d="M168.289 118.888C165.943 115.664 163.6 112.432 161.235 109.224C160.912 108.787 160.944 108.66 161.449 108.434C164.28 107.16 165.887 104.912 166.153 101.871C166.607 96.741 162.475 92.3616 157.294 92.3338C154.63 92.3179 151.962 92.3497 149.298 92.3179C148.677 92.3099 148.522 92.4807 148.526 93.0921C148.554 99.7665 148.554 106.437 148.562 113.111C148.562 115.057 148.574 117.002 148.554 118.948C148.55 119.389 148.658 119.551 149.127 119.536C150.113 119.5 151.103 119.484 152.085 119.54C152.721 119.575 152.857 119.353 152.849 118.753C152.817 115.748 152.853 112.746 152.821 109.74C152.813 109.141 153 108.978 153.568 109.018C154.208 109.065 154.853 109.061 155.493 109.018C155.978 108.986 156.24 109.181 156.511 109.566C158.69 112.726 160.893 115.875 163.095 119.019C163.239 119.226 163.318 119.52 163.672 119.52C165.314 119.512 166.956 119.516 168.706 119.516C168.527 119.242 168.416 119.059 168.289 118.888ZM157.425 105.448C156.049 105.536 154.662 105.46 153.282 105.488C152.821 105.496 152.841 105.234 152.841 104.92C152.845 103.614 152.845 102.312 152.845 101.005C152.845 99.7268 152.864 98.4444 152.837 97.1659C152.825 96.7053 152.976 96.5743 153.425 96.5822C154.658 96.61 155.89 96.5862 157.127 96.5941C159.644 96.606 161.672 98.4245 161.755 100.735C161.835 103.197 159.962 105.285 157.425 105.448Z" fill="white"/>
</g>
<defs>
<clipPath id="clip0_62_2898">
<rect width="269" height="120" fill="white"/>
</clipPath>
</defs>
</svg>
