<svg width="181" height="68" viewBox="0 0 181 68" fill="none" xmlns="http://www.w3.org/2000/svg">
<g clip-path="url(#clip0_5_11)">
<path d="M14.9721 59.3535C12.9869 62.0512 11.0043 64.7511 8.97629 67.5095C6.95629 64.7623 4.97375 62.0714 2.91629 59.2747C2.90291 59.529 2.88953 59.6707 2.88953 59.8147C2.88953 62.2987 2.87616 64.7826 2.90024 67.2665C2.90559 67.667 2.75308 67.7548 2.31698 67.7345C1.65345 67.7053 0.989932 67.721 0.323733 67.73C0.0936407 67.7345 -0.0160546 67.6828 0.00802485 67.4758C0.0240778 67.3228 0.0107003 67.1698 0.0107003 67.0145C0.0107003 62.2154 0.0107003 57.414 0.0107003 52.6149C0.0107003 52.5317 -1.63727e-06 52.4462 0.0133758 52.3629C0.0294288 52.2459 -0.0695645 52.0749 0.0909652 52.0254C0.296978 51.9602 0.353164 52.1559 0.436104 52.2639C3.09822 55.6636 5.75767 59.0632 8.41443 62.4674C8.96559 63.1739 8.96291 63.1806 9.52209 62.4674C12.1708 59.0767 14.8169 55.6861 17.471 52.2977C17.562 52.1829 17.6128 51.9579 17.8429 52.0277C18.0248 52.0839 17.9285 52.2774 17.9285 52.4057C17.9338 57.3735 17.9285 62.3414 17.9419 67.307C17.9419 67.667 17.8161 67.7525 17.4121 67.7345C16.7994 67.7053 16.1814 67.7053 15.5714 67.7345C15.1647 67.7548 15.0443 67.667 15.047 67.307C15.0684 64.7961 15.0577 62.2829 15.0577 59.772C15.0577 59.637 15.0577 59.4997 15.0577 59.3647C15.0309 59.3625 15.0015 59.358 14.9721 59.3535Z" fill="#1689BD"/>
<path d="M50.3475 59.3535C48.3623 62.0512 46.3797 64.7511 44.349 67.5095C42.329 64.7646 40.3465 62.0714 38.3639 59.3782C38.3292 59.3805 38.2944 59.385 38.2596 59.3872C38.2596 59.529 38.2596 59.6707 38.2596 59.8125C38.2596 62.3099 38.2516 64.8073 38.2703 67.3048C38.273 67.6625 38.1472 67.7525 37.7432 67.7323C37.1305 67.703 36.5125 67.6918 35.9025 67.7345C35.4236 67.7683 35.3781 67.604 35.3781 67.2643C35.3915 63.0366 35.3861 58.809 35.3861 54.5814C35.3861 53.8411 35.3834 53.1031 35.3888 52.3629C35.3888 52.2459 35.3059 52.0749 35.4637 52.0232C35.6697 51.9557 35.7259 52.1514 35.8088 52.2594C37.4623 54.3654 39.1104 56.4736 40.7585 58.5817C41.8608 59.9902 42.9685 61.3964 44.0574 62.8116C44.2768 63.0974 44.3758 63.1401 44.6273 62.8161C47.3643 59.2905 50.1174 55.7761 52.8705 52.2594C52.9534 52.1537 53.0043 51.9557 53.2156 52.0209C53.3895 52.0727 53.3012 52.2437 53.3012 52.3584C53.3066 57.3533 53.3012 62.3482 53.3146 67.343C53.3146 67.667 53.2022 67.7435 52.8384 67.73C52.2096 67.7053 51.5729 67.6918 50.9468 67.7345C50.4706 67.766 50.4197 67.604 50.4224 67.2643C50.4385 64.7241 50.4304 62.1862 50.4304 59.646C50.4304 59.5515 50.4304 59.457 50.4304 59.3625C50.4064 59.3625 50.3769 59.358 50.3475 59.3535Z" fill="#1689BD"/>
<path d="M21.4387 60.024C21.4387 57.5963 21.4441 55.1663 21.4307 52.7386C21.428 52.4372 21.4762 52.3089 21.9016 52.3112C25.2219 52.3292 28.5449 52.3269 31.8678 52.3134C32.2558 52.3112 32.3414 52.4079 32.3253 52.7116C32.2959 53.2539 32.2986 53.8006 32.3253 54.3451C32.3387 54.6376 32.229 54.7231 31.8812 54.7208C29.5402 54.7096 27.1964 54.7253 24.8554 54.7051C24.4219 54.7006 24.2908 54.7861 24.3015 55.1618C24.3336 56.2216 24.3256 57.2835 24.3042 58.3432C24.2989 58.62 24.4005 58.692 24.7216 58.6897C26.7309 58.6785 28.7402 58.692 30.7495 58.6762C31.1053 58.674 31.2498 58.728 31.2284 59.0587C31.1936 59.6145 31.199 60.1747 31.2257 60.7327C31.2391 61.0297 31.124 61.1062 30.7789 61.1039C28.7857 61.0904 26.7924 61.1062 24.7992 61.0904C24.4166 61.0882 24.2908 61.1647 24.2989 61.5022C24.3256 62.6316 24.3283 63.7634 24.2989 64.8928C24.2882 65.2573 24.4326 65.3226 24.8313 65.3181C27.1563 65.3023 29.4813 65.3203 31.8063 65.3023C32.229 65.3001 32.3441 65.4013 32.3227 65.7456C32.2879 66.2608 32.2879 66.7783 32.3227 67.2935C32.3467 67.6355 32.2397 67.739 31.8117 67.7345C29.2699 67.7165 26.7309 67.7255 24.1892 67.7255C23.4427 67.7255 22.6936 67.7053 21.9471 67.7345C21.5404 67.7503 21.42 67.6648 21.4227 67.307C21.4468 64.8793 21.4387 62.4516 21.4387 60.024Z" fill="#1689BD"/>
<path d="M86.1135 60.006C86.1135 57.5783 86.1216 55.1483 86.1028 52.7207C86.1002 52.3809 86.2232 52.3112 86.6031 52.3134C89.9074 52.3247 93.2143 52.3247 96.5185 52.3134C96.877 52.3112 97.0189 52.3719 96.9974 52.7004C96.9627 53.2426 96.9653 53.7894 96.9974 54.3316C97.0162 54.6579 96.877 54.7276 96.5159 54.7254C94.1908 54.7119 91.8658 54.7276 89.5408 54.7119C89.1208 54.7096 88.9629 54.7794 88.9763 55.1663C89.0111 56.1991 89.0084 57.2318 88.9763 58.2645C88.9656 58.6267 89.1074 58.6965 89.5087 58.6942C91.4672 58.6762 93.4283 58.6965 95.3868 58.6785C95.8122 58.674 95.9219 58.7797 95.9005 59.124C95.8657 59.6527 95.8684 60.186 95.9005 60.7147C95.9192 61.0297 95.8015 61.1152 95.4269 61.1129C93.4497 61.0972 91.4752 61.1152 89.498 61.0972C89.078 61.0927 88.971 61.1939 88.979 61.5404C89.0057 62.6699 89.0031 63.8016 88.979 64.9311C88.971 65.2528 89.0913 65.3248 89.4579 65.3226C91.799 65.3091 94.1427 65.3248 96.4837 65.3068C96.9092 65.3046 97.0189 65.4148 96.9974 65.7546C96.9653 66.3126 96.976 66.8705 96.9948 67.4285C97.0028 67.667 96.9092 67.7368 96.6282 67.7368C93.241 67.73 89.8512 67.7255 86.464 67.7413C86.0413 67.7435 86.1162 67.541 86.1162 67.3385C86.1135 64.8906 86.1135 62.4472 86.1135 60.006Z" fill="#43BCA8"/>
<path d="M155.272 59.9992C155.272 57.5715 155.278 55.1416 155.264 52.7139C155.262 52.4146 155.329 52.3089 155.722 52.3111C159.045 52.3246 162.365 52.3246 165.688 52.3111C166.06 52.3089 166.178 52.3876 166.159 52.7049C166.127 53.2201 166.114 53.7399 166.162 54.2528C166.199 54.6646 166.001 54.7276 165.57 54.7253C163.278 54.7096 160.987 54.7276 158.694 54.7096C158.261 54.7051 158.127 54.7951 158.138 55.1708C158.17 56.2035 158.162 57.2363 158.141 58.269C158.133 58.5862 158.221 58.6965 158.627 58.692C160.605 58.674 162.579 58.692 164.556 58.6762C164.931 58.674 165.086 58.737 165.062 59.0835C165.025 59.6392 165.035 60.1994 165.059 60.7574C165.073 61.0432 164.944 61.1062 164.629 61.1039C162.651 61.0949 160.674 61.1129 158.7 61.0882C158.221 61.0814 158.13 61.2142 158.138 61.5809C158.165 62.6541 158.178 63.7318 158.133 64.8051C158.114 65.2551 158.296 65.3226 158.772 65.3181C161.065 65.2978 163.355 65.3158 165.648 65.3023C166.028 65.3001 166.178 65.3676 166.156 65.714C166.122 66.2698 166.13 66.83 166.154 67.388C166.167 67.6737 166.039 67.7322 165.726 67.7322C162.387 67.7232 159.048 67.721 155.711 67.7367C155.307 67.739 155.262 67.6152 155.262 67.3273C155.278 64.8838 155.272 62.4426 155.272 59.9992Z" fill="#43BCA8"/>
<path d="M59.6047 60.321C59.6047 62.7239 59.5967 65.0121 59.6154 67.3003C59.6181 67.6423 59.5298 67.7593 59.1044 67.7368C58.4596 67.703 57.8095 67.712 57.162 67.7345C56.8061 67.748 56.7205 67.6513 56.7232 67.361C56.7366 64.9468 56.7312 62.5327 56.7312 60.1185C56.7312 57.648 56.7366 55.1798 56.7232 52.7094C56.7205 52.4034 56.8035 52.2954 57.1861 52.3112C57.8496 52.3382 58.5158 52.3359 59.1766 52.3112C59.5325 52.2977 59.6154 52.3922 59.6127 52.6824C59.5994 54.8738 59.6047 57.063 59.6047 59.2545C59.6047 59.349 59.6047 59.4435 59.6047 59.6505C59.9178 59.2905 60.1585 59.0182 60.394 58.7437C62.1224 56.7143 63.8561 54.6871 65.5738 52.6532C65.7771 52.4124 65.9778 52.3022 66.3389 52.3112C67.2673 52.3337 68.1957 52.3179 69.1348 52.3179C69.1643 52.5249 68.977 52.6284 68.87 52.7544C66.9329 55.0178 64.9958 57.2813 63.0401 59.5335C62.818 59.79 62.8046 59.9475 63.0427 60.2085C65.3142 62.6811 67.5643 65.1651 69.8545 67.6828C69.3676 67.7683 68.9128 67.7188 68.4633 67.7233C67.7677 67.73 66.9677 67.8943 66.4005 67.6625C65.8386 67.433 65.5069 66.8008 65.0841 66.3373C63.3504 64.4316 61.6194 62.5259 59.8883 60.6202C59.8241 60.5459 59.7519 60.474 59.6047 60.321Z" fill="#1689BD"/>
<path d="M77.065 67.9865C75.0156 67.964 73.1775 67.4915 71.7167 66.2136C71.3929 65.9301 71.1334 65.6083 70.8899 65.2731C70.7669 65.1066 70.7508 64.9963 70.9809 64.8658C71.5856 64.5238 72.1769 64.1616 72.7601 63.7926C72.9742 63.6576 73.0678 63.6914 73.2096 63.8736C74.6196 65.6578 77.4824 65.9031 79.3392 65.1336C81.0087 64.4428 81.1933 63.1424 79.7779 62.1232C78.9352 61.5179 77.9292 61.1489 76.9285 60.7777C75.944 60.4109 74.9567 60.051 74.0203 59.5965C70.4752 57.882 71.2057 54.1449 74.122 52.7994C76.1741 51.8544 78.2984 51.7869 80.4334 52.5789C81.4849 52.9681 82.2421 53.6409 82.7397 54.5206C82.8655 54.7433 82.8253 54.8693 82.5845 54.9998C82.0575 55.2901 81.5357 55.5871 81.0301 55.9043C80.792 56.0551 80.7037 56.0146 80.5538 55.8121C79.4515 54.3429 77.0543 53.9851 75.4196 55.0336C74.237 55.7918 74.2638 56.9438 75.4918 57.6413C76.3078 58.1048 77.2416 58.368 78.1379 58.692C79.4034 59.151 80.6635 59.6212 81.7471 60.3547C84.5323 62.2357 84.1898 65.6443 81.0702 67.1563C79.8368 67.7593 78.4857 67.9955 77.065 67.9865Z" fill="#43BCA8"/>
<path d="M174.442 67.9865C172.393 67.9685 170.555 67.4983 169.091 66.2248C168.719 65.9008 168.251 65.5453 168.216 65.1358C168.176 64.6813 168.909 64.6026 169.271 64.3236C169.573 64.0896 169.921 63.7859 170.285 63.7476C170.683 63.7071 170.812 64.1909 171.093 64.4203C172.548 65.6151 175.095 65.9121 176.869 65.0661C178.349 64.3596 178.509 63.1379 177.236 62.1862C176.379 61.5472 175.341 61.1669 174.311 60.7822C173.327 60.4154 172.342 60.0532 171.403 59.6032C167.839 57.8933 168.562 54.1314 171.521 52.7859C173.559 51.8589 175.668 51.7914 177.789 52.5721C178.809 52.9479 179.553 53.5914 180.064 54.4306C180.227 54.6983 180.235 54.8693 179.89 55.0426C179.392 55.2923 178.918 55.5781 178.456 55.8706C178.209 56.0258 178.1 56.0528 177.904 55.7896C176.861 54.3744 174.501 54.0031 172.883 54.9751C171.585 55.7558 171.604 56.9505 172.931 57.6795C173.725 58.116 174.627 58.3725 175.491 58.6875C176.695 59.124 177.87 59.5987 178.948 60.2399C182.017 62.0692 181.5 65.7388 178.413 67.172C177.174 67.7503 175.847 67.9933 174.442 67.9865Z" fill="#43BCA8"/>
<path d="M151.366 63.7094C151.885 64.3213 152.388 64.9266 152.907 65.5206C153.084 65.7231 152.881 65.7883 152.757 65.8873C150.02 68.1057 146.133 68.621 142.668 67.2283C139.08 65.7861 136.951 62.6991 137.248 59.3737C137.625 55.1551 142.133 51.8229 147.174 52.0794C149.362 52.1919 151.211 52.9951 152.816 54.2281C153.028 54.3901 152.969 54.4959 152.835 54.6466C152.407 55.1258 151.976 55.6028 151.564 56.0933C151.404 56.2868 151.31 56.3093 151.088 56.1338C150.192 55.4251 149.164 54.8873 147.95 54.6713C145.301 54.1966 143.163 54.9886 141.542 56.7188C139.915 58.458 139.629 60.4177 140.819 62.4066C141.999 64.3776 143.963 65.4733 146.62 65.5386C148.273 65.5791 149.662 64.9513 150.893 64.0649C151.045 63.9569 151.19 63.8444 151.366 63.7094Z" fill="#43BCA8"/>
<path d="M112.628 52.3202C113.596 52.3202 114.525 52.3269 115.45 52.3157C115.726 52.3112 115.766 52.4642 115.846 52.6172C117.428 55.6388 119.009 58.6582 120.59 61.6777C120.748 61.9814 120.911 62.2851 121.117 62.6721C121.307 62.3189 121.457 62.0377 121.604 61.7564C123.185 58.7505 124.772 55.7468 126.337 52.7364C126.497 52.4259 126.679 52.2932 127.099 52.3089C127.926 52.3404 128.758 52.3179 129.585 52.3179C129.665 52.4529 129.556 52.5407 129.507 52.6329C126.813 57.6458 124.116 62.6564 121.417 67.667C121.352 67.7863 121.344 67.9753 121.146 67.9865C120.903 68.0023 120.895 67.7885 120.828 67.6625C118.145 62.6609 115.466 57.6593 112.788 52.6554C112.735 52.5587 112.692 52.4552 112.628 52.3202Z" fill="#43BCA8"/>
<path d="M102.397 23.9102C104.54 23.8944 106.68 23.8922 108.823 23.9102C109.243 23.9147 109.345 23.8112 109.342 23.4669C109.329 19.6443 109.334 15.8194 109.331 11.9945C109.331 8.14258 109.326 4.29068 109.34 0.438781C109.34 0.09454 109.238 -0.00670742 108.82 -0.00220754C106.677 0.015792 104.537 0.0135421 102.394 -0.00220754C101.985 -0.00445748 101.862 0.0900401 101.862 0.441031C101.872 8.11558 101.872 15.7924 101.859 23.4669C101.859 23.8292 101.993 23.9124 102.397 23.9102Z" fill="url(#paint0_linear_5_11)"/>
<path d="M108.815 27.4111C103.983 27.4156 99.1512 27.4021 94.322 27.3976C89.292 27.3931 84.2594 27.3953 79.2295 27.3931C79.0315 27.3931 78.8335 27.3751 78.6355 27.3661C78.764 26.7473 79.093 26.1871 79.3713 25.6111C79.4034 25.5796 79.4409 25.5504 79.4623 25.5166C80.9284 23.3027 83.1571 21.8447 85.9156 20.9087C87.7242 20.3485 89.6024 20.272 91.502 20.3282C92.0317 20.344 92.5642 20.3215 93.0939 20.3327C93.332 20.3372 93.4069 20.2652 93.4069 20.0672C93.3989 18.157 93.3962 16.2446 93.4069 14.3344C93.4096 14.0577 93.233 14.0577 92.9976 14.0599C92.0023 14.0644 91.007 14.0554 90.0091 14.0622C88.3476 14.0734 86.6995 14.2084 85.0862 14.5616C82.6006 15.1039 80.3264 16.0061 78.3493 17.4011C77.8516 17.6576 77.4396 18.0018 77.0249 18.337C75.3527 19.6803 73.9079 21.172 72.8805 22.9269C71.9013 24.4321 71.3127 26.0476 70.9649 27.7305C70.593 29.5418 70.692 31.371 70.6545 33.1957C70.6465 33.5939 70.7963 33.6659 71.2324 33.6659C79.6469 33.6546 88.0613 33.6569 96.4757 33.6546C96.6416 33.6546 96.8075 33.6456 96.9734 33.6389C98.3111 33.6456 99.6462 33.6614 100.984 33.6524C101.353 33.6501 101.415 33.7356 101.276 34.0079C101.054 34.4376 100.858 34.8786 100.65 35.3151C99.9833 36.3006 99.1967 37.2073 98.1881 37.9723C95.8309 39.7587 93.1019 40.7532 89.8913 40.751C83.6655 40.7465 77.4369 40.7532 71.211 40.742C70.7963 40.742 70.6465 40.7982 70.6545 41.1875C70.684 42.9739 70.684 44.7604 70.6545 46.5446C70.6492 46.945 70.799 47.0171 71.2351 47.0148C77.5787 47.0036 83.9223 47.0126 90.2632 47.0036C92.5053 47.0013 94.6912 46.6886 96.7727 45.9798C101.423 44.3981 104.882 41.7004 107.253 37.9993C108.403 36.2713 108.997 34.4016 109.233 32.4442C109.417 30.9142 109.283 29.3775 109.337 27.8453C109.35 27.4898 109.224 27.4111 108.815 27.4111Z" fill="url(#paint1_linear_5_11)"/>
<path d="M86.5015 11.3577C88.6767 11.3419 90.8492 11.3442 93.0243 11.3554C93.3614 11.3577 93.4818 11.2902 93.4792 10.9887C93.4658 7.4608 93.4658 3.93064 93.4792 0.402731C93.4792 0.0832392 93.3588 0.00224134 92.9976 0.00449129C90.8224 0.015741 88.6499 0.0179909 86.4747 0.00224134C86.1028 -8.59727e-06 85.9985 0.0832392 86.0038 0.398231C86.0226 2.15544 86.0119 3.91264 86.0119 5.66985C86.0119 7.42705 86.0226 9.18425 86.0012 10.9415C85.9985 11.2767 86.1135 11.3599 86.5015 11.3577Z" fill="url(#paint2_linear_5_11)"/>
<path d="M71.0558 11.349C73.231 11.3377 75.4062 11.3355 77.5814 11.349C77.9586 11.3512 78.0549 11.2635 78.0496 10.9507C78.0309 9.20701 78.0416 7.46106 78.0389 5.71735C78.0389 3.9309 78.0309 2.14444 78.0469 0.357988C78.0496 0.0789957 77.9506 0.00249762 77.6269 0.00474757C75.4356 0.0137473 73.2417 0.0159973 71.0505 0.00474757C70.6839 0.00249762 70.5689 0.0879954 70.5689 0.405237C70.5796 3.9219 70.5796 7.43856 70.5662 10.9552C70.5662 11.277 70.6973 11.3512 71.0558 11.349Z" fill="url(#paint3_linear_5_11)"/>
<path d="M134.631 60.0217C134.631 62.4494 134.623 64.8748 134.642 67.3025C134.644 67.6603 134.516 67.7503 134.112 67.7345C133.432 67.7075 132.75 67.721 132.071 67.73C131.84 67.7323 131.725 67.676 131.755 67.4713C131.766 67.4015 131.755 67.3318 131.755 67.262C131.755 62.4359 131.76 57.6098 131.744 52.7836C131.741 52.3944 131.873 52.2842 132.319 52.3112C132.897 52.3427 133.483 52.3427 134.061 52.3112C134.503 52.2887 134.647 52.3854 134.644 52.7836C134.618 55.1956 134.631 57.6098 134.631 60.0217Z" fill="#43BCA8"/>
<path d="M113.235 67.37C111.656 65.5431 110.081 63.7116 108.489 61.8937C108.272 61.6462 108.293 61.5742 108.633 61.4459C110.538 60.7237 111.619 59.4502 111.798 57.7268C112.103 54.8198 109.323 52.3382 105.837 52.3224C104.045 52.3134 102.249 52.3314 100.457 52.3134C100.039 52.3089 99.9351 52.4057 99.9378 52.7522C99.9565 56.5343 99.9565 60.3142 99.9619 64.0964C99.9619 65.1988 99.9699 66.3013 99.9565 67.4038C99.9539 67.6535 100.026 67.7458 100.342 67.7368C101.005 67.7165 101.672 67.7075 102.332 67.739C102.76 67.7593 102.851 67.6333 102.846 67.2935C102.825 65.5903 102.849 63.8894 102.827 62.1862C102.822 61.8464 102.948 61.7542 103.33 61.7767C103.761 61.8037 104.195 61.8014 104.625 61.7767C104.952 61.7587 105.128 61.8689 105.31 62.0872C106.776 63.8781 108.259 65.6623 109.741 67.4443C109.837 67.5613 109.891 67.7278 110.129 67.7278C111.234 67.7233 112.339 67.7255 113.516 67.7255C113.396 67.5703 113.321 67.4668 113.235 67.37ZM105.926 59.754C105 59.8035 104.066 59.7607 103.138 59.7765C102.827 59.781 102.841 59.6325 102.841 59.4547C102.843 58.7145 102.843 57.9765 102.843 57.2363C102.843 56.5118 102.857 55.7851 102.838 55.0606C102.83 54.7996 102.932 54.7254 103.234 54.7299C104.063 54.7456 104.893 54.7321 105.725 54.7366C107.418 54.7433 108.783 55.7738 108.839 57.0833C108.893 58.4783 107.633 59.6617 105.926 59.754Z" fill="#43BCA8"/>
</g>
<defs>
<linearGradient id="paint0_linear_5_11" x1="96.7331" y1="19.4174" x2="111.434" y2="1.93649" gradientUnits="userSpaceOnUse">
<stop stop-color="#008DC3"/>
<stop offset="1" stop-color="#00BDAA"/>
</linearGradient>
<linearGradient id="paint1_linear_5_11" x1="76.9023" y1="45.9781" x2="105.114" y2="-1.10085" gradientUnits="userSpaceOnUse">
<stop stop-color="#008DC3"/>
<stop offset="0.2682" stop-color="#0092C0"/>
<stop offset="0.5916" stop-color="#00A1B9"/>
<stop offset="0.9421" stop-color="#00B9AC"/>
<stop offset="0.9905" stop-color="#00BDAA"/>
</linearGradient>
<linearGradient id="paint2_linear_5_11" x1="84.5967" y1="10.008" x2="93.1238" y2="-0.131871" gradientUnits="userSpaceOnUse">
<stop stop-color="#008DC3"/>
<stop offset="1" stop-color="#00BDAA"/>
</linearGradient>
<linearGradient id="paint3_linear_5_11" x1="69.1682" y1="10.0047" x2="77.7014" y2="-0.14237" gradientUnits="userSpaceOnUse">
<stop stop-color="#008DC3"/>
<stop offset="1" stop-color="#00BDAA"/>
</linearGradient>
<clipPath id="clip0_5_11">
<rect width="181" height="68" fill="white"/>
</clipPath>
</defs>
</svg>
