<svg width="795" height="621" viewBox="0 0 795 621" fill="none" xmlns="http://www.w3.org/2000/svg">
<g clip-path="url(#clip0_14_8)">
<path d="M471.263 156.468C475.797 159.731 480.811 161.927 486.368 161.676C506.238 160.777 523.057 153.289 534.213 136.348C541.818 124.802 543.929 111.647 541.693 97.7796C540.272 88.9324 537.41 80.8381 532.291 73.455C530.808 71.3216 529.701 68.8118 529.053 66.3019C525.877 54.15 519.129 45.261 507.011 40.9733C501.913 39.1746 496.752 37.5641 491.717 35.6399C485.115 33.1091 478.408 30.7457 472.078 27.6084C463.971 23.5926 457.682 17.067 451.143 10.9597C446.4 6.54653 441.135 2.92816 434.93 1.10851C431.629 0.146405 427.889 -0.313735 424.504 0.16732C413.013 1.77781 403.444 7.21582 395.943 16.1467C394.063 18.3847 392.308 20.7272 390.553 23.0697C383.47 32.4817 383.826 42.9394 385.789 53.8363C387.941 65.6744 395.275 74.3334 402.817 82.7833C408.333 88.9742 414.601 94.5377 420.681 100.206C432.653 111.354 443.141 123.819 453.169 136.703C456.972 141.597 461.088 146.241 465.204 150.884C467.063 152.913 469.236 154.628 471.263 156.468Z" fill="#008DC3"/>
<path d="M251.176 474.885C294.8 448.322 344.568 420.065 387.795 382.25C398.889 372.546 410.569 368.655 423.961 371.291C439.693 374.386 455.927 377.461 470.364 384.028C515.222 404.442 554.229 394.779 590.833 364.891C610.243 349.037 629.966 333.601 639.431 309.339C643.672 298.463 647.725 287.253 649.731 275.812C656.5 237.223 664.398 198.634 667.866 159.689C670.812 126.727 661.598 95.5417 636.819 71.217C606.921 41.8309 557.3 37.334 518.648 60.4038C491.947 76.3413 466.332 94.475 438.503 108.07C390.449 131.579 339.031 144.484 285.628 149.901C246.663 153.854 207.656 158.581 170.424 171.967C94.8961 199.157 42.58 248.078 25.6984 329.146C19.3051 359.892 20.1827 391.913 32.3006 420.191C47.448 455.517 74.3373 481.829 113.783 491.429C159.372 502.556 203.185 496.637 251.176 474.885Z" fill="#CCDDEE"/>
<path d="M102.397 490.425C96.5048 485.447 90.7801 480.281 84.7003 475.554C76.8445 469.447 68.5918 463.841 60.6942 457.797C49.8298 449.514 39.0908 441.065 28.3518 432.615C27.0773 431.611 26.1372 430.23 25.0716 428.975C24.1523 427.867 23.1912 426.675 21.5825 427.47C19.9737 428.264 20.2035 429.812 20.6841 431.151C25.2388 443.888 30.3993 456.291 38.9864 467.021C49.9134 480.699 62.0313 493.039 76.8027 502.535C80.5008 504.919 84.5749 506.76 88.5028 508.81C93.0366 511.152 97.5077 513.641 102.167 515.67C106.659 517.636 111.339 519.184 115.977 520.794C118.944 521.819 121.472 521.003 124.125 519.184C133.068 513.055 137.121 503.874 140.338 494.127C141.425 490.843 142.177 487.455 143.075 484.108C146.648 470.953 144.454 458.152 140.38 445.561C139.21 441.943 137.309 438.576 135.742 435.104C135.429 434.392 135.094 433.681 134.864 432.928C134.3 431.13 132.671 430.46 131.417 431.799C130.352 432.928 129.307 434.392 128.973 435.877C125.63 450.246 122.433 464.678 119.195 479.068C119.027 479.821 118.86 480.595 118.61 481.703C118.254 481.118 118.046 480.887 117.962 480.595C113.512 466.393 105.969 453.886 96.672 442.445C91.5532 436.149 85.8912 430.272 80.3127 424.353C78.495 422.429 76.2177 420.944 74.0866 419.354C72.8748 418.455 71.4959 417.932 69.9916 418.727C68.4664 419.522 68.1112 421.028 68.3202 422.492C68.6753 424.75 69.0096 427.114 69.908 429.185C78.8502 449.786 88.3566 470.074 101.373 488.522C101.791 489.107 102.167 489.714 102.564 490.32C102.522 490.341 102.459 490.383 102.397 490.425Z" fill="#008DC3"/>
<path d="M729.877 150.277C733.679 143.564 737.691 136.975 741.201 130.115C745.734 121.247 749.746 112.107 754.196 103.218C760.318 91.003 766.648 78.8721 772.958 66.762C773.71 65.3398 774.901 64.1267 775.925 62.8718C776.844 61.7633 777.847 60.6129 776.76 59.1697C775.674 57.7266 774.211 58.2495 772.979 58.9815C761.3 65.8209 750.101 73.1831 741.138 83.599C729.73 96.8803 719.848 111.082 713.246 127.354C711.595 131.433 710.53 135.783 709.255 140.008C707.793 144.902 706.184 149.754 705.035 154.711C703.927 159.501 703.28 164.395 702.548 169.248C702.089 172.364 703.363 174.686 705.641 176.965C713.308 184.641 723.065 186.942 733.219 188.302C736.646 188.762 740.114 188.866 743.561 189.159C757.142 190.247 769.302 185.729 780.918 179.413C784.24 177.593 787.207 175.104 790.341 172.929C790.989 172.49 791.615 172.029 792.305 171.674C793.955 170.795 794.331 169.059 792.785 168.055C791.469 167.219 789.839 166.466 788.314 166.403C773.585 165.755 758.834 165.274 744.105 164.73C743.332 164.709 742.559 164.688 741.409 164.646C741.911 164.207 742.12 163.935 742.371 163.789C755.491 156.803 766.377 147.056 775.904 135.804C781.148 129.592 785.87 122.941 790.654 116.353C792.2 114.219 793.245 111.688 794.415 109.304C795.063 107.965 795.334 106.48 794.269 105.163C793.203 103.824 791.678 103.72 790.278 104.222C788.126 104.975 785.87 105.748 783.989 107.024C765.416 119.615 747.239 132.729 731.527 148.918C731.026 149.441 730.503 149.922 729.981 150.424C729.981 150.361 729.918 150.319 729.877 150.277Z" fill="#49C0B0"/>
<path d="M141.487 57.6011C132.065 47.4571 121.827 38.1497 108.957 32.8372C100.976 29.5535 92.3262 27.4829 83.8019 25.956C75.0059 24.3874 66.001 24.1364 57.0797 23.3207C56.3485 23.258 55.5127 23.1325 54.8859 23.3834C53.9249 23.8018 52.5459 24.3874 52.337 25.1613C52.1072 25.9979 52.9847 27.1482 53.4443 28.1312C53.5697 28.3822 53.9458 28.5286 54.2383 28.696C66.8159 35.4935 78.5368 43.9642 92.1173 48.8375C102.188 52.4559 112.404 55.635 122.517 59.107C127.656 60.8639 132.733 62.7881 137.769 64.7751C140.38 65.7999 142.281 65.6535 143.702 63.7084C145.206 61.6378 143.639 60.1946 142.469 58.7305C142.135 58.3331 141.801 57.9776 141.487 57.6011Z" fill="#49C0B0"/>
<path d="M126.277 84.9794C130.289 90.9194 135.972 94.7469 142.407 97.5705C145.708 99.0346 147.421 98.1352 148.027 94.5377C148.904 89.2461 146.794 84.6238 144.078 80.3362C138.918 72.221 130.895 67.6405 122.496 63.6875C121.597 63.2692 119.696 63.4365 119.153 64.0849C118.401 64.9842 118.004 66.6993 118.296 67.8706C119.78 74.0825 122.454 79.8133 126.277 84.9794Z" fill="#49C0B0"/>
<path d="M119.989 89.9363C112.801 80.2734 104.193 73.5805 93.2037 70.1085C92.5769 69.9203 91.9084 69.5229 91.3234 69.6275C90.3414 69.7739 88.9624 69.983 88.5655 70.6314C88.0849 71.4262 88.0849 72.9948 88.5655 73.7687C89.4639 75.191 90.7593 76.4668 92.0964 77.4917C101.08 84.2892 110.106 91.003 119.132 97.7378C119.466 97.9888 119.821 98.3653 120.177 98.3653C121.179 98.3862 122.517 98.6162 123.06 98.0724C123.603 97.5496 123.749 95.9809 123.352 95.2279C122.329 93.1991 120.929 91.3586 119.989 89.9363Z" fill="#49C0B0"/>
<path d="M126.988 224.234C127.426 222.833 128.262 221.62 127.949 220.909C127.406 219.696 126.256 218.671 125.191 217.792C106.199 202.085 87.1865 186.398 68.1739 170.712C66.9412 169.687 65.7294 168.557 64.3296 167.805C63.6192 167.428 62.5328 167.763 61.6135 167.784C61.7597 168.767 61.6553 169.896 62.1358 170.67C62.6999 171.569 63.7655 172.113 64.6221 172.824C84.5122 189.347 104.423 205.85 124.313 222.352C124.919 222.854 125.588 223.251 126.988 224.234Z" fill="#008DC3"/>
<path d="M108.33 238.29C108.685 236.721 109.333 235.55 109.041 234.671C108.685 233.625 107.62 232.747 106.722 231.973C89.7773 217.458 72.833 202.963 55.8261 188.553C54.5517 187.465 52.8593 185.018 51.0834 187.277C49.4747 189.326 52.1072 190.33 53.3608 191.397C70.7646 206.435 88.2103 221.432 105.656 236.428C106.262 236.951 106.951 237.327 108.33 238.29Z" fill="#008DC3"/>
<path d="M131.96 215.011C132.315 213.358 132.942 212.187 132.671 211.309C132.336 210.242 131.354 209.301 130.456 208.527C114.097 194.43 97.7375 180.354 81.3365 166.299C80.2083 165.336 78.9338 164.416 77.5549 163.872C76.8654 163.58 75.6327 163.935 75.0059 164.437C74.7134 164.688 75.194 165.985 75.4656 166.78C75.57 167.093 76.0506 167.303 76.364 167.533C95.105 181.462 112.384 197.107 129.328 213.107C129.871 213.609 130.56 213.986 131.96 215.011Z" fill="#008DC3"/>
<path d="M117.21 229.17C117.857 228.794 118.672 228.606 118.798 228.208C119.007 227.539 119.111 226.493 118.714 226.012C117.795 224.841 116.625 223.837 115.455 222.917C98.8239 209.761 82.214 196.605 65.4996 183.554C64.7057 182.947 63.264 183.177 62.1149 183.031C62.5119 184.223 62.5328 185.855 63.3476 186.524C72.1227 193.719 81.044 200.746 89.9235 207.816C98.2598 214.446 106.617 221.055 114.974 227.644C115.664 228.187 116.416 228.647 117.21 229.17Z" fill="#008DC3"/>
<path d="M88.0223 163.015C88.8998 163.914 89.631 164.814 90.5085 165.546C102.856 176.15 115.267 186.691 127.531 197.4C130.163 199.701 132.211 202.65 134.676 205.139C135.366 205.85 136.619 205.975 137.622 206.393C137.685 205.222 138.145 203.884 137.727 202.921C137.163 201.583 136.034 200.433 134.99 199.366C121.848 185.854 107.495 173.744 92.5352 162.346C91.6994 161.697 90.4041 161.572 89.2967 161.446C89.0042 161.383 88.6073 162.241 88.0223 163.015Z" fill="#008DC3"/>
<path d="M685.98 506.697C687.38 507.136 688.592 507.973 689.302 507.659C690.514 507.115 691.538 505.965 692.415 504.898C708.106 485.886 723.776 466.853 739.445 447.82C740.469 446.586 741.597 445.373 742.35 443.972C742.726 443.261 742.391 442.173 742.371 441.253C741.389 441.399 740.26 441.295 739.487 441.776C738.589 442.34 738.046 443.407 737.335 444.265C720.83 464.176 704.345 484.108 687.861 504.02C687.359 504.627 686.962 505.317 685.98 506.697Z" fill="#008DC3"/>
<path d="M671.94 488.041C673.507 488.396 674.677 489.045 675.555 488.752C676.599 488.396 677.477 487.33 678.25 486.43C692.75 469.468 707.228 452.505 721.624 435.48C722.71 434.204 725.155 432.51 722.898 430.732C720.851 429.122 719.848 431.757 718.782 433.012C703.76 450.435 688.78 467.899 673.8 485.363C673.277 485.949 672.901 486.639 671.94 488.041Z" fill="#008DC3"/>
<path d="M695.194 511.675C696.845 512.031 698.015 512.658 698.892 512.386C699.958 512.051 700.898 511.068 701.671 510.169C715.753 493.792 729.814 477.416 743.854 460.997C744.815 459.868 745.734 458.592 746.277 457.211C746.57 456.521 746.215 455.287 745.713 454.66C745.463 454.367 744.167 454.848 743.373 455.12C743.06 455.224 742.851 455.705 742.621 456.019C728.706 474.78 713.078 492.077 697.095 509.04C696.594 509.604 696.218 510.274 695.194 511.675Z" fill="#008DC3"/>
<path d="M681.049 496.909C681.426 497.557 681.614 498.373 682.011 498.498C682.679 498.707 683.724 498.812 684.204 498.415C685.374 497.494 686.377 496.323 687.296 495.152C700.438 478.503 713.58 461.875 726.617 445.164C727.223 444.369 726.993 442.926 727.139 441.776C725.949 442.173 724.319 442.194 723.65 443.01C716.463 451.794 709.443 460.725 702.381 469.614C695.758 477.959 689.156 486.326 682.575 494.692C682.011 495.361 681.572 496.135 681.049 496.909Z" fill="#008DC3"/>
<path d="M747.134 467.69C746.236 468.568 745.337 469.3 744.606 470.179C734.013 482.54 723.483 494.964 712.786 507.241C710.488 509.876 707.542 511.926 705.056 514.394C704.345 515.084 704.22 516.339 703.802 517.343C704.972 517.406 706.309 517.866 707.27 517.448C708.607 516.883 709.756 515.754 710.822 514.708C724.319 501.552 736.416 487.183 747.803 472.208C748.45 471.371 748.576 470.074 748.701 468.966C748.764 468.673 747.886 468.276 747.134 467.69Z" fill="#008DC3"/>
<path d="M392.12 621C608.682 621 784.24 612.994 784.24 603.117C784.24 593.241 608.682 585.235 392.12 585.235C175.558 585.235 0 593.241 0 603.117C0 612.994 175.558 621 392.12 621Z" fill="#CCDDEE"/>
<path d="M136.787 599.394C136.327 599.394 135.846 599.311 135.387 599.122C133.423 598.349 132.462 596.132 133.235 594.165L209.494 400.175C210.267 398.209 212.482 397.247 214.446 398.021C216.41 398.794 217.371 401.012 216.598 402.978L140.338 596.968C139.753 598.495 138.312 599.394 136.787 599.394Z" fill="#1B6C82"/>
<path d="M338.864 599.394C337.339 599.394 335.897 598.474 335.312 596.968L259.052 402.978C258.279 401.012 259.24 398.794 261.204 398.021C263.168 397.247 265.383 398.209 266.156 400.175L342.416 594.165C343.189 596.132 342.228 598.349 340.264 599.122C339.804 599.311 339.344 599.394 338.864 599.394Z" fill="#1B6C82"/>
<path d="M303.575 509.646C303.158 509.646 302.74 509.584 302.322 509.437L186.763 468.882C184.778 468.192 183.733 466.017 184.423 464.009C185.112 462.022 187.306 460.976 189.291 461.666L304.85 502.221C306.835 502.911 307.879 505.087 307.19 507.095C306.626 508.663 305.163 509.646 303.575 509.646Z" fill="#1B6C82"/>
<path d="M172.075 509.646C170.508 509.646 169.024 508.663 168.481 507.095C167.792 505.108 168.836 502.932 170.821 502.221L286.381 461.666C288.365 460.976 290.538 462.022 291.249 464.009C291.938 465.996 290.893 468.171 288.909 468.882L173.349 509.437C172.911 509.584 172.493 509.646 172.075 509.646Z" fill="#1B6C82"/>
<path d="M279.319 599.394C278.859 599.394 278.378 599.311 277.919 599.122C275.955 598.349 274.994 596.132 275.767 594.165L352.026 400.175C352.799 398.209 355.014 397.247 356.978 398.021C358.942 398.794 359.903 401.012 359.13 402.978L282.87 596.968C282.285 598.495 280.844 599.394 279.319 599.394Z" fill="#1B6C82"/>
<path d="M481.417 599.394C479.892 599.394 478.45 598.474 477.865 596.968L401.605 402.978C400.832 401.012 401.794 398.794 403.757 398.021C405.721 397.247 407.936 398.209 408.709 400.175L484.969 594.165C485.742 596.132 484.781 598.349 482.817 599.122C482.357 599.311 481.876 599.394 481.417 599.394Z" fill="#1B6C82"/>
<path d="M446.128 509.646C445.711 509.646 445.293 509.584 444.875 509.437L329.316 468.882C327.331 468.192 326.286 466.017 326.976 464.009C327.665 462.022 329.838 460.976 331.844 461.666L447.403 502.221C449.388 502.911 450.432 505.087 449.743 507.095C449.179 508.663 447.695 509.646 446.128 509.646Z" fill="#1B6C82"/>
<path d="M314.607 509.646C313.04 509.646 311.557 508.663 311.013 507.095C310.324 505.108 311.369 502.932 313.353 502.221L428.913 461.666C430.897 460.976 433.07 462.022 433.781 464.009C434.47 465.996 433.426 468.171 431.441 468.882L315.881 509.437C315.464 509.584 315.025 509.646 314.607 509.646Z" fill="#1B6C82"/>
<path d="M450.641 377.984C461.673 392.813 456.053 414.084 439.108 421.467C387.336 444.014 281.68 478.273 207.259 423.935C203.205 420.965 199.236 417.744 195.371 414.23C194.033 413.038 192.717 411.783 191.422 410.507C116.625 337.324 188.1 226.159 209.661 196.396C212.9 191.92 218.833 190.289 223.89 192.527C223.91 192.547 223.952 192.547 223.973 192.568C224.976 193.008 226 193.468 227.003 193.907C341.538 245.61 417.275 333.12 450.641 377.984Z" fill="#49C0B0"/>
<path d="M196.039 243.686C182.772 270.311 168.189 310.134 174.143 348.681C179.325 382.271 191.422 406.533 207.259 423.914C203.205 420.944 199.236 417.723 195.371 414.209C183.002 396.557 174.791 374.825 170.842 349.183C168.147 331.74 169.296 312.644 174.227 292.398C178.155 276.251 184.506 259.33 193.093 242.138C207.008 214.237 222.448 194.493 223.973 192.568C224.976 193.008 226 193.468 227.003 193.907C226.94 194.116 226.835 194.325 226.689 194.513C226.543 194.702 210.476 214.739 196.039 243.686Z" fill="#1B6C82"/>
<path d="M249.463 249.249C249.463 249.249 215.302 355.625 244.845 393.796C271.63 428.411 323.779 430.774 408.249 390.763C420.43 384.99 426.05 380.703 419.114 369.889C363.559 304.759 307.399 251.55 249.463 249.249Z" fill="#1B6C82"/>
<path d="M464.995 280.894C459.291 280.413 453.754 279.828 448.406 279.158C447.821 279.075 447.236 279.012 446.651 278.928C432.715 277.129 420.096 274.724 409.273 271.796C408.5 271.587 407.727 271.378 406.954 271.169C404.53 270.478 402.211 269.767 399.997 269.035C386.959 264.706 380.754 260.606 379.083 259.059C375.197 252.407 371.373 245.233 367.696 237.997C367.425 237.453 367.153 236.93 366.881 236.386C361.7 226.117 356.894 215.826 352.862 206.854C345.779 191.104 341.099 179.433 340.995 179.203C337.548 170.607 327.811 166.445 319.224 169.875C310.637 173.326 306.48 183.073 309.906 191.669C310.721 193.677 329.838 241.28 350.606 276.732C355.599 285.266 367.216 292.858 385.121 299.342C396.863 303.587 410.589 307.059 426.197 309.758C426.719 309.862 427.262 309.946 427.805 310.029C438.419 311.807 449.889 313.229 462.153 314.275C462.634 314.317 463.115 314.338 463.595 314.338C472.203 314.338 479.516 307.75 480.247 299.007C481.041 289.804 474.209 281.689 464.995 280.894Z" fill="#008DC3"/>
<path d="M367.696 238.018C362.494 245.171 358.942 253.349 357.187 262.091C356.978 263.116 355.411 262.677 355.62 261.652C357.459 252.449 361.303 243.874 366.881 236.407C367.153 236.951 367.425 237.474 367.696 238.018Z" fill="#88E0F2"/>
<path d="M448.406 279.158C443.162 287.42 430.689 287.503 422.31 284.22C415.729 281.647 410.422 276.983 406.975 271.168C407.727 271.378 408.5 271.608 409.294 271.796C412.24 276.188 416.377 279.765 421.37 282.065C428.871 285.496 441.365 286.416 446.672 278.928C447.236 279.012 447.821 279.095 448.406 279.158Z" fill="#88E0F2"/>
<path d="M449.973 288.591C439.881 292.209 431.796 300.22 427.805 310.029C427.262 309.946 426.719 309.841 426.197 309.757C430.333 299.342 438.816 290.871 449.555 287.022C450.537 286.688 450.955 288.256 449.973 288.591Z" fill="#88E0F2"/>
<path d="M378.289 259.163C374.653 260.92 371.645 263.555 369.368 266.881C368.783 267.738 370.182 268.554 370.767 267.697C372.898 264.601 375.74 262.196 379.104 260.564C380.044 260.125 379.229 258.724 378.289 259.163Z" fill="#171612"/>
<path d="M375.009 353.847C375.009 353.847 361.324 380.243 330.632 374.512C330.214 374.428 329.775 374.365 329.357 374.261C318.869 372.253 307.127 369.22 294.487 364.786C294.09 364.64 293.693 364.514 293.296 364.368C283.852 361 273.928 356.817 263.607 351.672C263.607 351.672 265.717 346.82 267.619 339.269C267.723 338.83 267.848 338.37 267.953 337.889C269.457 331.593 270.753 323.645 270.669 315.175C270.669 314.756 270.648 314.359 270.648 313.941C270.564 310.49 270.23 306.934 269.583 303.399C269.206 301.412 268.663 299.3 267.932 297.083C267.807 296.685 267.681 296.288 267.535 295.891C267.18 294.845 266.783 293.778 266.365 292.691C263.315 284.868 258.635 276.063 253.349 267.174C253.14 266.797 252.91 266.442 252.701 266.086C248.46 259.038 243.884 251.968 239.455 245.359C239.225 245.003 238.974 244.648 238.744 244.313C235.36 239.293 232.1 234.567 229.134 230.321C228.82 229.881 228.507 229.442 228.214 229.003C227.525 228.02 226.877 227.079 226.23 226.159C225.561 225.196 224.892 224.255 224.266 223.377C224.015 223.021 223.764 222.666 223.534 222.331C220.171 217.646 217.58 214.174 217.078 212.166C216.661 210.514 216.264 208.778 215.992 207.021C215.929 206.603 215.867 206.163 215.804 205.724C215.679 204.678 215.616 203.591 215.616 202.524C215.616 201.98 215.637 201.437 215.679 200.893C215.762 199.805 215.929 198.697 216.222 197.588C216.368 197.023 216.535 196.48 216.744 195.915C216.89 195.476 217.078 195.036 217.266 194.618C217.434 194.283 217.601 193.928 217.768 193.593C219.251 190.791 221.612 188.03 225.248 185.373C225.582 185.122 225.937 184.892 226.292 184.641C226.773 184.307 227.274 183.993 227.776 183.679C228.319 183.345 228.862 183.01 229.447 182.696C230.763 181.943 232.205 181.211 233.751 180.5C235.736 179.58 237.554 178.681 239.225 177.781C239.288 177.739 239.35 177.718 239.413 177.677C239.517 177.614 239.622 177.551 239.726 177.509C242.672 175.899 245.117 174.33 247.164 172.845C247.624 172.51 248.063 172.197 248.481 171.862C250.11 170.607 251.447 169.415 252.534 168.327C252.847 168.035 253.119 167.742 253.39 167.449C256.566 164.019 257.193 161.802 257.193 161.802L281.157 162.387L282.724 162.429L296.367 162.764C296.367 162.764 302.134 165.692 308.485 167.261C309.154 167.428 309.802 167.574 310.47 167.7C311.306 167.846 312.142 167.993 312.956 168.076C313.458 168.139 313.938 168.181 314.419 168.202C314.983 168.244 315.526 168.244 316.069 168.244C321.752 168.076 326.579 167.679 330.13 170.231C330.569 170.565 331.008 170.921 331.426 171.339C332.596 172.552 333.599 174.205 334.414 176.463C334.602 176.945 334.748 177.426 334.873 177.928C334.915 178.074 334.957 178.22 334.999 178.367C335.061 178.618 335.124 178.89 335.187 179.141C335.249 179.413 335.312 179.705 335.375 179.977C336.189 184.181 336.043 188.615 336.169 192.568C336.231 194.43 336.336 196.187 336.649 197.755C336.733 198.174 336.816 198.571 336.921 198.968C337.297 200.307 337.84 201.457 338.676 202.378C341.037 204.971 345.194 208.025 348.704 212.333C348.851 212.522 348.997 212.689 349.122 212.877C349.352 213.191 349.582 213.484 349.812 213.798C349.895 213.923 350 214.049 350.083 214.174C351.859 216.705 353.343 219.633 354.116 223.084C354.157 223.293 354.199 223.502 354.241 223.711C354.304 224.004 354.345 224.276 354.408 224.59C354.429 224.715 354.45 224.82 354.45 224.945C354.575 225.74 354.659 226.556 354.68 227.393C354.805 230.028 354.554 232.663 354.074 235.32C353.99 235.842 353.886 236.365 353.781 236.888C353.426 238.54 353.008 240.193 352.549 241.866C352.361 242.493 352.193 243.121 352.005 243.769C351.441 245.652 350.835 247.534 350.271 249.416C350.146 249.814 350.021 250.232 349.895 250.63C349.749 251.111 349.603 251.592 349.456 252.073C349.248 252.742 349.06 253.411 348.871 254.081C348.286 256.151 347.785 258.222 347.43 260.272C347.325 260.794 347.242 261.317 347.179 261.861C347.012 263.095 346.908 264.329 346.866 265.542C346.74 269.704 347.639 275.247 349.101 281.354C349.185 281.668 349.248 281.982 349.331 282.316C349.352 282.4 349.373 282.484 349.394 282.567C350.104 285.37 350.919 288.298 351.838 291.247C352.047 291.917 352.256 292.565 352.465 293.234C353.823 297.522 355.327 301.831 356.853 305.951C357.02 306.411 357.208 306.85 357.375 307.31C358.775 311.012 360.175 314.505 361.512 317.643C362.389 319.734 363.246 321.763 364.061 323.729V323.75C364.646 325.172 365.21 326.553 365.753 327.933C365.795 328.038 365.837 328.142 365.878 328.226C366.004 328.54 366.129 328.832 366.234 329.125C378.686 360.791 375.009 353.847 375.009 353.847Z" fill="#008DC3"/>
<path d="M323.424 326.804C317.845 324.628 311.619 325.005 305.832 326.113C299.606 327.285 293.568 329.418 287.948 332.388C284.772 334.061 281.22 336.362 278.379 338.537C278.901 338.6 279.423 338.746 279.904 338.914C286.401 334.082 294.341 330.171 302.217 328.142C307.838 326.699 313.938 325.8 319.684 326.971C325.827 328.226 330.465 332.304 333.118 337.91C334.163 340.127 334.873 342.448 335.333 344.812C335.688 344.791 336.043 344.77 336.398 344.749C334.915 336.989 331.426 329.92 323.424 326.804Z" fill="#88E0F2"/>
<path d="M365.335 326.908C359.861 328.435 355.139 332.137 352.528 337.408C351.713 339.06 350.961 341.068 350.627 343.118C350.23 343.18 349.833 343.264 349.415 343.327C349.645 341.674 350.125 340.064 350.689 338.621C353.175 332.242 358.524 327.598 364.876 325.779C365.043 326.155 365.189 326.532 365.335 326.908Z" fill="#88E0F2"/>
<path d="M281.554 164.165C282.348 164.102 282.223 162.868 281.45 162.931C280.656 163.015 280.76 164.249 281.554 164.165Z" fill="#88E0F2"/>
<path d="M261.142 63.8548C261.142 63.8548 259.303 37.104 242.401 36.8112C225.498 36.5183 229.092 56.1161 229.092 56.1161C229.092 56.1161 219.272 50.5735 221.988 63.1019C224.704 75.6302 248.46 73.706 248.46 73.706L261.142 63.8548Z" fill="#171612"/>
<path d="M260.055 57.873C260.055 57.873 245.89 61.6168 241.356 73.8733C241.356 73.8733 243.362 76.4459 248.167 77.1361C248.167 77.1361 250.215 68.9373 261.142 63.8757C261.142 63.8548 262.688 59.9436 260.055 57.873Z" fill="#008DC3"/>
<path d="M322.484 154.419C310.637 157.723 270.397 161.53 239.1 148.102C239.204 142.706 238.807 136.536 237.616 129.446C234.817 112.734 232.665 65.5699 267.117 60.2992C301.57 55.0285 328.146 77.6799 320.75 108.865C317.72 121.644 319.788 138.607 322.484 154.419Z" fill="#171612"/>
<path d="M311.369 108.3C311.369 108.3 315.422 108.488 316.425 113.613C317.428 118.737 315.192 127.459 309.927 126.622C304.662 125.785 311.369 108.3 311.369 108.3Z" fill="#632829"/>
<path d="M304.766 128.17C304.787 124.238 307.984 121.058 311.912 121.079C315.84 121.1 319.015 124.3 318.994 128.232C318.974 132.165 315.777 135.344 311.849 135.323C307.921 135.302 304.745 132.102 304.766 128.17ZM306.835 128.191C306.814 130.972 309.07 133.231 311.849 133.252C314.628 133.273 316.884 131.014 316.905 128.232C316.926 125.451 314.67 123.192 311.891 123.171C309.133 123.15 306.856 125.409 306.835 128.191Z" fill="white"/>
<path d="M256.692 165.085C256.692 165.085 264.297 178.074 279.465 179.643C298.749 181.609 300.588 173.263 300.588 173.263C299.668 170.691 299.083 168.139 298.728 165.378C298.603 164.333 298.498 163.266 298.436 162.136C298.269 159.104 298.331 155.778 298.582 151.909C298.645 151.009 298.707 150.068 298.77 149.106V149.002C285.357 146.408 274.263 140.949 266.428 131.453L264.38 130.345L263.001 129.592L262.792 130.387L263.147 132.855C264.882 144.379 262.646 154.105 256.692 165.085Z" fill="#B15F4F"/>
<path d="M276.059 141.263C279.131 147.496 286.088 158.434 298.457 162.115C298.29 159.083 298.352 155.757 298.603 151.888C298.666 150.988 298.728 150.047 298.791 149.085C298.54 149.127 298.269 149.169 297.997 149.19C290.768 149.964 282.766 146.554 276.059 141.263Z" fill="#171612"/>
<path d="M246.099 111.103C245.953 118.319 251.865 127.291 261.288 127.772H261.33L261.539 127.793C261.685 128.212 261.852 128.63 262.019 129.048C262.103 129.236 262.166 129.404 262.249 129.592C262.249 129.613 262.27 129.634 262.27 129.634C267.869 142.037 285.19 149.629 294.612 150.089C297.976 150.256 300.274 149.545 301.006 149.399C311.055 147.433 313.228 133.942 311.891 123.568C311.682 122.062 311.431 120.619 311.097 119.302C311.076 119.218 311.055 119.113 311.034 119.03C311.034 119.03 314.711 104.619 315.631 98.3234C317.407 86.1088 310.679 73.5177 283.915 70.485C257.151 67.4523 250.361 83.9754 248.272 92.7808C247.916 94.2449 248.021 103.029 249.463 104.473C246.893 105.686 246.141 108.677 246.099 111.103Z" fill="#B15F4F"/>
<path d="M308.903 114.805C308.548 116.792 307.42 118.256 306.396 118.089C305.351 117.9 304.808 116.143 305.163 114.135C305.518 112.149 306.647 110.684 307.67 110.852C308.715 111.04 309.258 112.818 308.903 114.805Z" fill="#171612"/>
<path d="M301.758 112.609C301.653 112.567 301.57 112.483 301.507 112.379C301.361 112.128 301.465 111.793 301.716 111.647C301.925 111.521 307.065 108.739 311.013 112.149C311.243 112.337 311.264 112.671 311.076 112.901C310.888 113.132 310.554 113.152 310.324 112.964C306.918 110.036 302.28 112.567 302.238 112.588C302.092 112.692 301.904 112.692 301.758 112.609Z" fill="#171612"/>
<path d="M291.499 112.002C291.144 113.989 290.016 115.453 288.992 115.286C287.948 115.098 287.404 113.341 287.759 111.333C288.115 109.346 289.243 107.882 290.267 108.049C291.29 108.258 291.855 110.015 291.499 112.002Z" fill="#171612"/>
<path d="M283.435 110.413C283.33 110.371 283.226 110.308 283.163 110.224C282.996 109.994 283.038 109.66 283.267 109.471C283.476 109.325 288.198 105.916 292.565 108.802C292.816 108.969 292.878 109.304 292.711 109.534C292.544 109.785 292.21 109.848 291.959 109.681C288.219 107.212 283.936 110.287 283.894 110.329C283.769 110.433 283.581 110.454 283.435 110.413Z" fill="#171612"/>
<path d="M299.021 133.984C298.728 133.963 298.394 133.921 298.081 133.859C294.863 133.189 292.899 129.906 292.816 129.78C292.523 129.299 292.69 128.672 293.171 128.379C293.651 128.086 294.278 128.253 294.55 128.734C294.571 128.776 296.179 131.391 298.498 131.872C300.901 132.374 302.029 131.035 302.071 130.972C302.426 130.533 303.053 130.47 303.492 130.805C303.931 131.14 304.014 131.767 303.68 132.206C303.596 132.311 302.071 134.214 299.021 133.984Z" fill="#632829"/>
<path d="M262.291 122.146C261.894 122.083 261.58 121.77 261.518 121.351C260.369 114.533 252.325 111.416 252.262 111.375C251.761 111.186 251.51 110.622 251.698 110.12C251.886 109.618 252.45 109.367 252.952 109.555C253.328 109.701 262.103 113.09 263.44 121.017C263.524 121.54 263.168 122.042 262.646 122.146C262.521 122.167 262.416 122.167 262.291 122.146Z" fill="#632829"/>
<path d="M253.913 118.172C253.787 118.151 253.683 118.109 253.558 118.026C253.098 117.733 252.973 117.126 253.265 116.687C253.349 116.562 255.25 113.654 259.199 113.905C259.742 113.947 260.139 114.407 260.118 114.93C260.076 115.474 259.617 115.871 259.094 115.851C256.274 115.683 254.916 117.712 254.916 117.733C254.686 118.089 254.289 118.235 253.913 118.172Z" fill="#632829"/>
<g opacity="0.5">
<path d="M306.459 121.351C306.459 122.418 308.799 123.317 311.891 123.547C311.682 122.042 311.431 120.598 311.097 119.281C308.402 119.553 306.459 120.389 306.459 121.351Z" fill="#632829"/>
</g>
<g opacity="0.5">
<path d="M289.786 121.142C289.786 122.376 286.736 123.338 282.975 123.338C279.214 123.317 276.185 122.313 276.185 121.1C276.185 119.866 279.235 118.904 282.996 118.904C286.757 118.904 289.786 119.908 289.786 121.142Z" fill="#632829"/>
</g>
<path d="M261.288 127.751H261.33L261.539 127.772C261.685 128.191 261.852 128.609 262.019 129.027C262.103 129.216 262.166 129.383 262.249 129.571C262.249 129.592 262.27 129.613 262.27 129.613C263.356 129.467 264.714 129.09 265.947 128.253C266.678 127.751 267.368 127.103 267.911 126.204C268.204 125.744 268.057 125.158 267.598 124.865C267.138 124.572 266.553 124.698 266.261 125.158C265.634 126.141 264.777 126.747 263.9 127.145C263.315 127.396 262.709 127.563 262.186 127.647C261.852 127.71 261.539 127.751 261.288 127.751Z" fill="#632829"/>
<path d="M263.67 127.584C263.001 127.772 262.228 127.856 261.601 127.877C261.601 127.919 261.601 127.94 261.601 127.982C261.581 130.763 259.324 133.001 256.545 133.001C253.767 132.98 251.531 130.721 251.531 127.94C251.552 125.43 253.39 123.359 255.793 122.983C256.399 122.272 256.441 121.56 255.793 120.87C252.241 121.247 249.463 124.259 249.442 127.919C249.421 131.851 252.597 135.051 256.524 135.072C260.452 135.093 263.649 131.914 263.67 127.982C263.691 127.856 263.67 127.71 263.67 127.584Z" fill="white"/>
<path d="M296.472 138.418C295.093 138.125 294.362 137.163 294.32 137.101C294.111 136.808 294.174 136.41 294.445 136.201C294.738 135.992 295.135 136.055 295.344 136.327C295.385 136.39 296.346 137.582 298.143 137.08C298.478 136.975 298.833 137.184 298.937 137.519C299.042 137.854 298.833 138.209 298.498 138.314C297.705 138.544 297.036 138.544 296.472 138.418Z" fill="#632829"/>
<path d="M256.127 77.8054C262.019 71.97 270.147 67.3686 279.778 68.1425C293.275 69.2301 305.686 74.2498 312.434 81.7375C315.693 85.335 317.636 89.4971 317.762 94.0776C318.18 108.154 315.213 105.351 315.213 105.351C315.213 105.351 315.296 105.037 314.941 102.025C314.732 100.227 314.356 97.445 313.709 93.1782C312.162 83.0133 279.966 81.1309 281.909 87.6984C281.909 87.6984 281.993 88.5141 281.868 89.769C281.742 91.1076 281.387 92.9482 280.426 94.8096C280.175 94.8515 279.925 94.8724 279.695 94.9142C276.456 95.4371 273.782 96.2946 271.567 97.3822C271.567 97.3822 271.567 97.3822 271.546 97.3822C271.275 97.5705 266.302 101.022 266.887 106.188C267.472 111.479 269.269 118.423 265.717 117.043C262.166 115.641 261.058 111.333 261.058 111.333C259.199 108.928 256.9 106.522 253.411 105.288C252.429 95.96 252.304 86.4853 256.127 77.8054Z" fill="#171612"/>
<path d="M254.122 83.7663C263.837 80.6708 279.193 88.1585 281.889 89.769C281.763 91.1076 281.408 92.9482 280.447 94.8096C280.196 94.8515 279.945 94.8724 279.716 94.9142C276.477 95.4371 273.803 96.2946 271.588 97.3822C271.588 97.3822 271.588 97.3822 271.567 97.3822C271.296 97.5705 266.323 101.022 266.908 106.188C267.493 111.479 271.839 139.778 266.302 144.065C255.062 152.745 259.617 111.27 259.617 111.27C257.757 108.865 256.9 106.522 253.411 105.288C249.943 97.7169 251.406 90.6056 254.122 83.7663Z" fill="#171612"/>
<path d="M256.295 83.2643C256.295 83.2643 250.277 91.5468 253.432 105.267C253.432 105.267 248.794 103.992 246.558 104.744C244.323 105.497 242.192 97.3404 244.594 89.9363C246.997 82.5114 257.736 73.6432 257.736 73.6432C257.736 73.6432 258.342 80.859 256.295 83.2643Z" fill="#171612"/>
<path d="M300.065 124.614C300.212 124.614 300.379 124.593 300.504 124.51L304.223 122.439C304.474 122.293 304.641 122.042 304.641 121.749C304.641 121.456 304.495 121.184 304.265 121.038C301.403 119.26 299.71 116.583 298.937 112.63C298.854 112.19 298.415 111.898 297.976 111.981C297.537 112.065 297.245 112.504 297.328 112.943C298.101 116.854 299.668 119.657 302.28 121.665L299.71 123.087C299.313 123.317 299.167 123.798 299.397 124.196C299.543 124.447 299.794 124.593 300.065 124.614Z" fill="#632829"/>
<path d="M287.195 123.757C281.847 123.359 277.814 118.653 278.211 113.299C278.608 107.945 283.309 103.908 288.658 104.305C294.006 104.703 298.039 109.409 297.642 114.763C297.224 120.117 292.544 124.154 287.195 123.757ZM288.553 105.832C284.04 105.497 280.092 108.886 279.737 113.403C279.402 117.921 282.787 121.874 287.3 122.23C291.813 122.564 295.761 119.176 296.117 114.658C296.451 110.12 293.066 106.167 288.553 105.832Z" fill="white"/>
<path d="M310.24 125.493C304.892 125.095 300.859 120.389 301.256 115.035C301.653 109.681 306.354 105.644 311.703 106.041C317.051 106.439 321.084 111.145 320.687 116.499C320.269 121.874 315.589 125.911 310.24 125.493ZM311.577 107.568C307.065 107.233 303.116 110.622 302.761 115.139C302.426 119.657 305.811 123.61 310.324 123.966C314.837 124.3 318.786 120.912 319.141 116.394C319.496 111.877 316.111 107.924 311.577 107.568Z" fill="white"/>
<path d="M258.614 109.869L257.82 108.718C258.217 108.446 268.621 101.9 280.802 107.568L280.154 108.969C268.747 103.657 258.718 109.827 258.614 109.869Z" fill="white"/>
<path d="M297.308 114.617L296.493 113.32C297.642 112.567 300.421 111.709 302.614 113.801L301.549 114.909C299.689 113.152 297.412 114.554 297.308 114.617Z" fill="white"/>
<path d="M291.771 103.322C293.505 104.64 295.824 102.59 294.675 100.729C294.069 99.7666 293.087 98.8463 291.437 98.3025C284.333 95.96 278.775 100.31 278.775 100.31C278.775 100.31 286.422 100.499 289.87 102.172C290.684 102.548 291.29 102.946 291.771 103.322Z" fill="#171612"/>
<path d="M303.659 105.226C301.632 106.02 299.961 103.406 301.57 101.942C302.405 101.168 303.617 100.561 305.33 100.499C312.81 100.164 314.565 105.121 314.565 105.121C314.565 105.121 309.572 103.95 305.79 104.619C304.933 104.786 304.244 104.995 303.659 105.226Z" fill="#171612"/>
<path d="M251.489 168.537C251.489 168.537 251.761 150.215 263.147 146.91C263.147 146.91 272.57 159.752 298.582 157.159C298.582 157.159 305.226 157.953 307.148 170.816C307.148 170.816 306.104 185.248 283.288 183.428C260.494 181.65 251.489 168.537 251.489 168.537Z" fill="#008DC3"/>
<path d="M265.864 150.821C260.975 157.43 259.094 165.378 257.987 173.389C257.841 174.414 259.408 174.832 259.554 173.807C260.64 165.922 262.458 158.121 267.263 151.637C267.89 150.8 266.469 150.005 265.864 150.821Z" fill="#88E0F2"/>
<path d="M274.952 155.423C271.63 162.889 270.69 170.921 270.857 179.036C270.878 180.082 272.508 180.061 272.466 179.015C272.299 171.193 273.155 163.412 276.352 156.217C276.791 155.276 275.37 154.481 274.952 155.423Z" fill="#88E0F2"/>
<path d="M284.124 157.723C283.852 165.755 283.33 173.786 283.727 181.818C283.769 182.864 285.399 182.843 285.336 181.797C284.939 173.765 285.461 165.734 285.733 157.702C285.775 156.677 284.166 156.698 284.124 157.723Z" fill="#88E0F2"/>
<path d="M294.717 158.204C297.245 164.876 298.54 171.841 298.54 178.973C298.54 180.019 300.149 179.998 300.149 178.952C300.149 171.674 298.854 164.563 296.263 157.765C295.908 156.782 294.341 157.221 294.717 158.204Z" fill="#88E0F2"/>
<path d="M254.519 172.448C264.61 178.241 274.868 183.554 286.819 183.115C294.926 182.822 304.954 180.228 307.879 171.653C308.214 170.67 306.647 170.252 306.312 171.235C303.408 179.726 292.46 181.609 284.646 181.504C273.824 181.358 264.464 176.275 255.313 171.025C254.393 170.523 253.599 171.925 254.519 172.448Z" fill="#88E0F2"/>
<path d="M257.381 227.748C255.501 234.023 252.952 240.005 249.985 245.777C249.713 245.463 249.421 245.129 249.149 244.815C256.148 230.927 260.87 215.533 259.261 199.868C258.217 189.891 254.268 180.04 247.708 172.51C247.979 172.301 248.251 172.113 248.501 171.904C248.543 171.862 248.606 171.82 248.648 171.778C250.716 174.142 252.513 176.714 254.059 179.475C262.374 194.262 262.166 211.852 257.381 227.748Z" fill="#88E0F2"/>
<path d="M274.012 181.128C273.218 185.771 272.445 190.832 274.701 195.204C276.394 198.508 279.611 200.663 283.393 200.37C292.983 199.638 295.469 188.971 296.075 181.169C296.138 180.416 294.968 180.186 294.905 180.96C294.362 188.009 292.628 197.379 284.354 199.031C280.489 199.805 277.104 197.693 275.537 194.179C273.698 190.121 274.492 185.562 275.203 181.316C275.328 180.584 274.137 180.375 274.012 181.128Z" fill="#88E0F2"/>
<path d="M338.195 201.834C336.524 202.901 334.831 203.905 333.097 204.846C330.193 206.435 327.059 207.858 323.716 208.15C316.843 208.736 313.144 203.298 312.768 197.002C312.33 189.87 314.252 182.341 316.738 175.711C317.72 173.117 318.848 170.607 320.144 168.16C320.603 168.16 321.063 168.16 321.502 168.16C319.935 171.025 318.577 174.037 317.469 177.133C315.213 183.407 313.395 190.728 313.98 197.463C314.273 200.725 315.38 204.239 318.409 205.975C321.585 207.774 325.45 206.937 328.647 205.661C331.739 204.427 334.727 202.796 337.61 200.935C337.798 201.227 337.986 201.541 338.195 201.834Z" fill="#88E0F2"/>
<path d="M250.737 170.565C261.831 182.132 267.681 198.676 282.578 206.352C289.159 209.74 297.015 211.12 304.244 209.196C307.482 208.339 310.7 206.728 312.977 204.197C315.255 201.667 315.986 198.425 315.798 195.078C315.276 185.562 311.954 175.752 308.109 167.114C307.65 166.069 305.978 166.696 306.438 167.742C309.697 175.062 312.1 182.759 313.416 190.665C314.022 194.2 314.67 198.153 312.789 201.436C310.972 204.616 307.315 206.498 303.91 207.439C296.743 209.405 288.888 207.837 282.453 204.302C276.018 200.746 271.066 195.162 266.804 189.285C261.894 182.508 257.653 175.271 251.823 169.206C251.092 168.39 249.964 169.75 250.737 170.565Z" fill="white"/>
<path d="M351.985 217.311C348.746 219.152 345.111 220.344 341.413 220.867C330.214 222.457 319.266 218.775 308.548 216.035C302.865 214.592 296.66 213.065 290.873 214.864C285.837 216.412 281.889 220.177 278.587 224.13C270.356 234.044 263.816 245.547 258.969 257.678C258.718 257.302 258.467 256.925 258.217 256.549C259.324 253.851 260.515 251.194 261.81 248.58C266.219 239.523 271.567 230.572 278.086 222.875C281.011 219.424 284.458 216.203 288.679 214.404C293.484 212.354 298.728 212.689 303.743 213.693C315.15 215.994 326.182 220.616 338.007 220.009C342.625 219.758 347.346 218.545 351.4 216.266C351.609 216.579 351.797 216.935 351.985 217.311Z" fill="#88E0F2"/>
<path d="M300.003 256.507C293.275 270.269 285.106 283.299 275.662 295.326C275.537 294.845 275.412 294.364 275.286 293.883C277.292 291.31 279.256 288.675 281.157 285.998C287.613 276.878 293.359 267.236 298.331 257.239C300.128 253.641 304.913 245.422 299.376 242.786C294.8 240.611 289.201 245.903 286.046 248.622C278.441 255.126 272.194 262.865 266.762 271.21C266.574 270.813 266.365 270.395 266.156 269.997C266.908 268.847 267.681 267.717 268.475 266.588C271.776 261.903 275.37 257.406 279.36 253.286C282.975 249.563 286.986 245.589 291.499 242.995C294.717 241.155 299.606 239.858 302.092 243.581C304.683 247.555 301.779 252.868 300.003 256.507Z" fill="#88E0F2"/>
<path d="M354.659 230.697C354.638 231.095 354.596 231.492 354.554 231.889C349.833 231.91 345.111 232.475 340.493 233.604C332.888 235.487 324.469 238.75 319.12 244.752C316.487 247.701 314.795 251.487 315.38 255.503C316.028 260 319.099 263.723 322.734 266.253C329.734 271.127 338.947 273.302 347.325 273.888C347.388 273.888 347.472 273.888 347.555 273.908C347.618 274.306 347.681 274.724 347.764 275.122C345.967 275.017 344.171 274.829 342.395 274.557C334.079 273.302 324.26 270.478 318.389 264.078C315.631 261.066 313.813 257.092 314.106 252.93C314.356 249.27 316.278 245.965 318.786 243.372C324.74 237.181 333.724 233.855 341.935 232.078C346.135 231.157 350.397 230.718 354.659 230.697Z" fill="#88E0F2"/>
<path d="M353.384 296.037C346.72 294.552 340.702 290.829 334.643 287.608C330.59 285.454 326.37 283.467 321.815 282.693C316.446 281.773 311.055 282.881 306.145 285.098C296.158 289.595 287.488 297.752 279.945 305.554C279.34 306.181 278.734 306.808 278.149 307.436C278.065 306.934 277.982 306.453 277.898 305.951C279.047 304.738 280.217 303.525 281.408 302.353C288.679 295.159 296.848 287.775 306.333 283.697C310.93 281.731 315.902 280.727 320.896 281.354C325.283 281.898 329.42 283.613 333.327 285.6C339.72 288.842 345.967 293.004 352.925 294.719C353.092 295.159 353.238 295.598 353.384 296.037Z" fill="#88E0F2"/>
<path d="M363.329 321.972C356.289 320.09 349.958 316.22 343.523 312.853C336.085 308.942 328.438 306.265 319.935 306.327C311.536 306.39 303.262 308.67 295.761 312.393C289.828 315.363 284.479 319.211 279.611 323.645C279.59 323.143 279.59 322.641 279.569 322.139C291.311 311.786 306.208 304.529 322.17 305.177C330.381 305.512 337.694 308.398 344.881 312.226C350.689 315.321 356.435 318.73 362.744 320.592C362.953 321.031 363.141 321.491 363.329 321.972Z" fill="#88E0F2"/>
<path d="M276.937 355.5C285.169 322.056 278.483 286.374 259.784 257.657C255.563 251.173 250.653 244.941 245.138 239.314C244.406 238.561 243.257 239.712 243.989 240.465C273.072 270.081 285.357 314.589 275.37 355.06C275.119 356.085 276.686 356.524 276.937 355.5Z" fill="#171612"/>
<path d="M243.132 188.908C243.111 189.138 243.069 189.368 243.048 189.598C242.275 194.409 238.389 197.985 233.772 199.261C227.316 201.039 221.842 198.655 217.266 194.66C217.434 194.325 217.601 193.97 217.768 193.635C221.675 197.086 226.313 199.303 231.85 198.446C236.969 197.672 241.461 193.949 241.941 188.657C241.962 188.49 241.983 188.302 241.983 188.113C242.129 184.411 240.687 181.107 238.703 178.095C238.891 178.011 239.058 177.907 239.225 177.802C239.288 177.76 239.35 177.739 239.413 177.697C239.517 177.635 239.622 177.572 239.726 177.509C241.962 180.96 243.529 184.704 243.132 188.908Z" fill="#88E0F2"/>
<path d="M334.288 191.732C334.915 196.082 336.106 200.265 338.843 203.779C341.58 207.251 345.445 209.384 348.454 212.543C356.351 220.846 354.533 235.173 350.815 244.92C350.438 245.903 352.005 246.321 352.382 245.359C355.954 235.968 357.458 223.649 352.068 214.613C349.582 210.43 345.278 208.15 341.914 204.762C338.195 201.018 336.607 196.438 335.855 191.293C335.688 190.268 334.142 190.707 334.288 191.732Z" fill="#171612"/>
<path d="M350.773 245.714C352.653 255.189 356.184 264.35 359.402 273.427C359.757 274.41 361.324 273.992 360.969 272.988C357.751 263.911 354.22 254.75 352.34 245.275C352.131 244.25 350.585 244.69 350.773 245.714Z" fill="#171612"/>
<path d="M415.353 293.653C414.601 302.395 407.288 308.984 398.701 308.984C398.221 308.984 397.74 308.963 397.26 308.921C381.882 307.603 368.741 306.474 357.5 305.449C356.853 305.386 356.205 305.323 355.578 305.282C349.582 304.717 344.15 304.215 339.198 303.692C338.446 303.608 337.694 303.546 336.942 303.462C333.16 303.065 329.671 302.688 326.432 302.291C325.868 302.228 325.304 302.165 324.761 302.082C321.752 301.726 318.974 301.35 316.425 300.994C315.881 300.91 315.359 300.848 314.837 300.764C307.378 299.655 301.8 298.484 297.37 297.146C296.764 296.957 296.179 296.769 295.594 296.581C292.544 295.535 290.058 294.385 287.864 293.046C282.599 289.846 277.438 285.977 272.424 281.71C271.86 281.25 271.317 280.769 270.753 280.267C267.911 277.778 265.111 275.163 262.374 272.444C261.685 271.775 261.016 271.085 260.348 270.395C252.45 262.342 245.2 253.683 238.912 245.568C238.598 245.171 238.306 244.773 237.992 244.376C224.997 227.372 216.473 212.982 215.783 211.79C215.177 210.765 214.717 209.719 214.341 208.631C214.153 208.067 213.986 207.502 213.861 206.937C212.336 200.035 215.302 192.631 221.738 188.845C229.698 184.16 239.956 186.838 244.636 194.806C244.783 195.057 252.095 207.397 263.106 222.08C263.21 222.206 263.294 222.331 263.377 222.457C263.461 222.582 263.565 222.708 263.649 222.833C274.952 237.85 290.037 255.106 305.184 264.371C305.811 264.706 307.357 265.312 311.222 266.128C311.828 266.253 312.518 266.4 313.249 266.525C316.801 267.195 321.815 267.989 328.94 268.847C336.482 269.767 345.591 270.688 356.915 271.733C358.294 271.859 359.715 271.984 361.157 272.131C366.484 272.612 372.293 273.135 378.644 273.678C379.751 273.783 380.901 273.888 382.05 273.971C387.628 274.452 393.603 274.975 400.018 275.519C409.315 276.314 416.147 284.429 415.353 293.653Z" fill="#008DC3"/>
<path d="M239.392 245.212C239.267 245.401 239.1 245.526 238.912 245.568C238.285 245.714 237.554 245.087 237.992 244.397C237.992 244.397 237.992 244.376 238.013 244.376C244.009 235.089 240.437 223.398 232.497 216.558C227.295 212.062 220.964 209.74 214.362 208.631C214.174 208.067 214.007 207.502 213.882 206.937C221.633 208.129 229.029 210.911 234.837 216.517C242.505 223.879 245.43 235.905 239.392 245.212Z" fill="#88E0F2"/>
<path d="M263.419 222.917C259.491 239.189 259.157 256.089 262.374 272.423C261.685 271.754 261.016 271.064 260.348 270.374C257.569 254.52 258.07 238.206 261.873 222.477C262.019 221.829 262.709 221.766 263.127 222.08C263.252 222.164 263.356 222.289 263.398 222.457C263.461 222.603 263.461 222.749 263.419 222.917Z" fill="#88E0F2"/>
<path d="M297.349 297.125C296.743 296.936 296.158 296.748 295.573 296.56C294.403 288.466 292.857 280.434 290.538 272.591C289.473 268.993 288.386 265.291 286.757 261.903C284.834 257.887 279.799 254.311 276.644 259.477C272.821 265.731 272.09 274.578 272.403 281.689C271.839 281.229 271.296 280.748 270.732 280.246C270.648 276.063 271.045 271.901 271.985 267.822C272.758 264.455 273.74 260.313 275.976 257.553C277.731 255.419 280.301 254.687 282.891 255.67C286.046 256.862 287.697 259.916 288.888 262.886C293.359 273.783 295.72 285.412 297.349 297.125Z" fill="#88E0F2"/>
<path d="M316.425 300.994C315.881 300.91 315.359 300.848 314.837 300.764C317.971 289.323 316.801 276.92 311.285 266.128C311.891 266.253 312.58 266.4 313.312 266.525C318.493 277.359 319.496 289.616 316.425 300.994Z" fill="#88E0F2"/>
<path d="M358.461 272.925C344.296 277.422 332.324 287.943 326.411 302.291C326.349 302.458 326.265 302.625 326.203 302.793C325.827 303.755 324.239 303.336 324.636 302.353C324.677 302.27 324.698 302.186 324.74 302.102C330.444 288.047 341.663 277.548 355.118 272.423C356.247 272.591 357.354 272.758 358.461 272.925Z" fill="#88E0F2"/>
<path d="M401.961 283.362C395.755 286.416 389.529 289.428 383.199 292.189C381.256 293.025 379.292 293.862 377.328 294.636C372.898 296.413 360.864 302.688 358.232 295.075C357.166 292.021 359.255 288.926 361.157 286.709C363.643 283.801 366.589 281.25 369.66 278.991C371.311 277.799 373.003 276.69 374.779 275.686C375.635 275.833 376.45 276 377.286 276.167C375.949 276.858 374.633 277.61 373.358 278.426C370.475 280.267 367.78 282.358 365.314 284.722C362.953 286.96 358.858 290.536 359.778 294.134C361.094 299.258 367.905 296.393 371.143 295.221C374.779 293.925 378.352 292.502 381.882 290.975C382.321 290.787 382.76 290.599 383.178 290.411C388.819 287.943 394.376 285.266 399.913 282.547C400.582 282.818 401.271 283.09 401.961 283.362Z" fill="#88E0F2"/>
<path d="M357.479 305.449C356.832 305.386 356.184 305.323 355.557 305.282C354.011 302.521 351.567 300.534 347.618 300.555C344.421 300.576 341.643 301.872 339.177 303.692C338.425 303.608 337.673 303.546 336.921 303.462C340.473 300.513 344.588 298.359 349.436 299.07C353.531 299.655 355.975 302.207 357.479 305.449Z" fill="#88E0F2"/>
<path d="M439.84 310.155H401.313C401.313 310.155 393.791 308.44 386.521 301.14C384.16 298.777 383.282 295.514 383.178 292.189C383.157 291.603 383.157 291.017 383.178 290.432C383.449 284.031 386.082 277.903 386.082 277.903C386.082 277.903 391.932 279.493 399.913 282.567C400.582 282.818 401.25 283.09 401.94 283.383C415.081 288.654 432.694 297.689 439.84 310.155Z" fill="#B15F4F"/>
<path d="M251.552 211.936C268.016 229.672 284.479 247.43 300.922 265.166C301.632 265.94 302.782 264.789 302.071 264.015C285.607 246.279 269.144 228.522 252.701 210.786C251.991 210.033 250.842 211.183 251.552 211.936Z" fill="#171612"/>
<path d="M301.528 265.187C329.19 270.834 357.563 272.403 385.142 278.677C386.166 278.907 386.583 277.339 385.581 277.109C358.002 270.834 329.65 269.265 301.967 263.618C300.943 263.43 300.504 264.978 301.528 265.187Z" fill="#171612"/>
<path d="M247.248 258.347C258.739 270.562 271.17 282.588 284.876 292.314C291.583 297.083 298.791 299.865 306.897 301.099C314.607 302.249 322.421 302.73 330.172 303.608C338.717 304.591 347.284 305.449 355.871 305.93C356.915 305.993 356.915 304.361 355.871 304.299C346.594 303.776 337.38 302.793 328.146 301.747C318.117 300.617 307.545 300.555 297.893 297.355C287.759 293.987 279.402 286.269 271.484 279.388C263.419 272.382 255.71 264.957 248.397 257.176C247.666 256.423 246.538 257.573 247.248 258.347Z" fill="#171612"/>
<path d="M300.943 264.12C298.54 266.065 296.911 268.721 296.221 271.733C295.991 272.758 297.558 273.176 297.788 272.172C298.415 269.412 299.898 267.069 302.092 265.291C302.907 264.622 301.737 263.472 300.943 264.12Z" fill="#171612"/>
<path d="M270.251 324.44C270.251 324.44 254.79 354.579 262.918 378.402C271.045 402.225 331.677 416.928 365.356 403.124C399.036 389.341 361.533 317.622 361.533 317.622C361.533 317.622 336.9 338.997 270.251 324.44Z" fill="#171612"/>
<path d="M386.437 585.444C381.903 578.876 342.416 544.617 342.416 544.617C342.416 544.617 335.019 551.038 335.73 557.689C336.398 564.005 337.819 597.366 338.091 600.858L342.666 600.628L344.484 585.297C344.484 585.297 355.724 601.444 363.831 606.757C371.937 612.069 398.304 609.727 404.593 608.555C410.861 607.384 390.971 592.032 386.437 585.444Z" fill="#008DC3"/>
<path d="M353.447 527.508L342.813 542.965C342.813 542.965 340.953 547.942 343.418 555.012C345.884 562.102 354.471 573.104 362.515 581.198C369.472 588.163 383.951 594.751 388.088 592.639C392.225 590.526 379.229 576.555 375.259 569.109C371.29 561.684 370.329 555.43 368.302 549.218C365.962 542.044 376.074 529.098 376.074 529.098L353.447 527.508Z" fill="#B15F4F"/>
<path d="M383.199 337.094C383.199 337.094 461.798 364.138 457.452 399.296C453.107 434.455 376.659 538.928 376.659 538.928L345.863 533.448L361.073 476.244C369.932 444.39 373.713 426.612 385.455 412.599L320.875 402.685C320.854 402.664 335.73 337.951 383.199 337.094Z" fill="#171612"/>
<path d="M355.118 525.709C355.014 525.709 354.91 525.688 354.805 525.647C354.178 525.416 353.865 524.747 354.095 524.12C354.241 523.701 369.096 482.414 376.513 452.547C382.614 427.971 398.054 411.72 403.799 406.345C396.528 405.655 384.536 403.124 383.951 402.998C383.303 402.852 382.906 402.225 383.032 401.597C383.157 400.949 383.805 400.53 384.431 400.677C384.599 400.719 400.707 404.107 406.745 404.128C407.247 404.128 407.706 404.442 407.873 404.923C408.04 405.404 407.894 405.927 407.497 406.24C407.288 406.408 386.145 423.6 378.832 453.112C371.394 483.105 356.497 524.496 356.351 524.915C356.142 525.437 355.641 525.73 355.118 525.709Z" fill="#5A554D"/>
<path d="M381.694 532.13C381.632 532.13 381.59 532.109 381.527 532.109L348.746 525.249C348.098 525.124 347.681 524.475 347.827 523.848C347.952 523.199 348.6 522.781 349.227 522.928L382.008 529.788C382.656 529.913 383.053 530.562 382.927 531.189C382.823 531.775 382.279 532.172 381.694 532.13Z" fill="#5A554D"/>
<path d="M590.353 506.488C582.414 505.589 530.662 512.763 530.662 512.763C530.662 512.763 530.62 522.572 536.073 526.4C541.275 530.06 567.266 550.954 570.087 553.067L572.928 549.469L562.586 538.008C562.586 538.008 582.142 540.162 591.46 537.568C600.799 534.954 616.386 513.557 619.645 508.036C622.925 502.535 598.271 507.408 590.353 506.488Z" fill="#008DC3"/>
<path d="M519.839 498.415L529.68 511.382C529.68 511.382 532.187 516.067 539.144 518.87C546.102 521.673 560.016 522.467 571.403 521.714C581.223 521.066 595.702 514.478 596.83 509.981C597.958 505.484 578.904 506.049 570.693 504.166C562.482 502.263 557.154 498.875 551.158 496.323C544.242 493.374 535.634 482.707 535.634 482.707L519.839 498.415Z" fill="#B15F4F"/>
<path d="M544.388 488.584L517.415 505.84C517.415 505.84 496.23 486.2 470.072 463.005C443.914 439.81 419.532 412.452 409.336 391.767C409.336 391.767 332.178 425.106 290.35 416.782C272.946 413.331 265.091 401.367 261.873 388.609C261.392 386.705 261.016 384.781 260.724 382.878C258.279 366.815 261.915 351.254 261.915 351.254C261.915 351.254 360.007 333.183 410.694 334.94C414.225 335.065 417.526 335.274 420.555 335.609C425.34 336.132 429.435 336.927 432.611 338.035C439.046 340.294 447.069 347.092 455.802 356.608C456.115 356.943 456.429 357.298 456.742 357.633C494.141 398.941 544.388 488.584 544.388 488.584Z" fill="#171612"/>
<path d="M455.802 356.608C428.181 361.502 415.625 344.937 410.694 334.94C414.225 335.065 417.526 335.274 420.555 335.609C425.34 336.132 429.435 336.927 432.611 338.035C439.046 340.294 447.069 347.071 455.802 356.608Z" fill="#898CF8"/>
<path d="M440.655 435.48C440.425 435.459 440.195 435.376 440.007 435.229C420.994 420.484 410.757 398.962 408.354 393.461C398.409 399.234 367.926 408.227 366.568 408.604C365.941 408.792 365.273 408.436 365.085 407.788C364.896 407.161 365.252 406.491 365.899 406.303C366.234 406.199 400.185 396.201 408.229 390.7C408.521 390.491 408.897 390.428 409.252 390.554C409.608 390.658 409.879 390.93 410.004 391.265C410.109 391.516 420.138 416.782 441.448 433.326C441.971 433.723 442.054 434.476 441.657 434.999C441.428 435.355 441.031 435.522 440.655 435.48Z" fill="#5A554D"/>
<path d="M511.586 499.962C511.231 499.941 510.897 499.753 510.667 499.419C510.312 498.875 510.458 498.122 511.001 497.766L538.455 479.695C538.998 479.34 539.75 479.486 540.105 480.03C540.46 480.574 540.314 481.327 539.771 481.682L512.318 499.753C512.088 499.921 511.837 499.983 511.586 499.962Z" fill="#5A554D"/>
<path d="M518.209 495.445C517.959 495.696 517.603 495.821 517.29 495.779C517.018 495.758 516.747 495.654 516.538 495.445C516.078 494.985 471.179 450.477 449.534 431.297C429.978 413.979 418.153 387.103 415.771 381.309C407.748 384.467 357.709 403.542 311.222 406.094C290.183 407.265 276.958 401.095 269.583 395.741C266.156 393.252 263.67 390.721 261.894 388.63C261.413 386.726 261.037 384.802 260.745 382.878C261.079 383.463 261.789 384.635 262.959 386.141C264.652 388.295 267.284 391.139 271.108 393.9C278.17 398.983 290.831 404.839 311.097 403.71C361.157 400.949 415.437 378.883 415.98 378.653C416.272 378.527 416.607 378.527 416.899 378.653C417.192 378.778 417.421 379.029 417.547 379.322C417.672 379.636 429.665 410.486 451.122 429.498C472.83 448.72 517.771 493.29 518.23 493.73C518.669 494.211 518.669 494.985 518.209 495.445Z" fill="#5A554D"/>
<path d="M561.291 321.428H365.837C365.398 321.428 365.043 321.073 365.043 320.634C365.043 314.568 369.953 309.632 376.032 309.632H561.27C561.709 309.632 562.064 309.988 562.064 310.427V320.634C562.085 321.073 561.73 321.428 561.291 321.428Z" fill="#5A554D"/>
<path d="M626.54 213.316L602.137 316.597C601.489 319.358 599.024 321.303 596.203 321.303H445.92C441.992 321.303 439.088 317.622 439.986 313.794L464.389 210.514C465.037 207.753 467.502 205.808 470.323 205.808H620.606C624.534 205.829 627.438 209.489 626.54 213.316Z" fill="#171612"/>
<path d="M595.848 311.012H461.401C460.921 311.012 460.545 310.636 460.545 310.155C460.545 309.674 460.921 309.297 461.401 309.297H595.848C596.328 309.297 596.704 309.674 596.704 310.155C596.704 310.636 596.328 311.012 595.848 311.012Z" fill="#5A554D"/>
<path d="M476.298 205.829L450.328 321.303H445.961C442.033 321.303 439.129 317.622 440.028 313.794L464.431 210.514C465.078 207.753 467.544 205.808 470.364 205.808H476.298V205.829Z" fill="#5A554D"/>
<path d="M552.286 267.613C551.534 273.929 545.809 279.054 539.499 279.054C533.19 279.054 528.698 273.929 529.45 267.613C530.202 261.296 535.927 256.172 542.236 256.172C548.546 256.172 553.038 261.296 552.286 267.613Z" fill="#5A554D"/>
<path d="M530.682 340.043H515.932V586.991H530.682V340.043Z" fill="#49C0B0"/>
<path d="M628.107 590.15V607.217H417.38V590.15L515.932 579.065L522.743 579.734L529.575 579.065L628.107 590.15Z" fill="#49C0B0"/>
<path d="M628.107 596.885H417.38V607.217H628.107V596.885Z" fill="#1B6C82"/>
<path d="M530.682 365.727V377.691L515.932 382.313V365.727H530.682Z" fill="#1B6C82"/>
<path d="M705.996 365.727H342.457C340.055 365.727 338.112 363.782 338.112 361.377V345.418H710.341V361.377C710.341 363.761 708.398 365.727 705.996 365.727Z" fill="#1B6C82"/>
<path d="M719.346 329.46V337.324C719.346 341.842 716.902 345.523 713.893 345.523H334.957C331.948 345.523 329.504 341.863 329.504 337.324V329.46C329.504 324.942 331.948 321.282 334.957 321.282H713.893C716.902 321.261 719.346 324.942 719.346 329.46Z" fill="#49C0B0"/>
<path d="M664.168 321.407H652.426C650.629 321.407 649.167 319.943 649.167 318.145V246.656C649.167 244.857 650.629 243.393 652.426 243.393H664.168C665.965 243.393 667.428 244.857 667.428 246.656V318.145C667.428 319.943 665.965 321.407 664.168 321.407Z" fill="#008DC3"/>
<path d="M661.995 285.077H654.599C653.116 285.077 651.925 283.885 651.925 282.4C651.925 280.915 653.116 279.723 654.599 279.723H661.995C663.479 279.723 664.669 280.915 664.669 282.4C664.649 283.885 663.458 285.077 661.995 285.077Z" fill="#1C2B74"/>
<path d="M667.427 249.709H649.146V252.721H667.427V249.709Z" fill="#1C2B74"/>
<path d="M667.427 256.005H649.146V259.017H667.427V256.005Z" fill="#1C2B74"/>
<path d="M667.427 302.5H649.146V305.512H667.427V302.5Z" fill="#1C2B74"/>
<path d="M667.427 308.795H649.146V311.807H667.427V308.795Z" fill="#1C2B74"/>
<path d="M645.887 321.407H634.145C632.348 321.407 630.885 319.943 630.885 318.145V246.656C630.885 244.857 632.348 243.393 634.145 243.393H645.887C647.683 243.393 649.146 244.857 649.146 246.656V318.145C649.146 319.943 647.704 321.407 645.887 321.407Z" fill="#008DC3"/>
<path d="M643.714 285.077H636.318C634.834 285.077 633.643 283.885 633.643 282.4C633.643 280.915 634.834 279.723 636.318 279.723H643.714C645.197 279.723 646.388 280.915 646.388 282.4C646.388 283.885 645.176 285.077 643.714 285.077Z" fill="#1C2B74"/>
<path d="M649.167 249.709H630.885V252.721H649.167V249.709Z" fill="#1C2B74"/>
<path d="M649.167 256.005H630.885V259.017H649.167V256.005Z" fill="#1C2B74"/>
<path d="M649.167 302.5H630.885V305.512H649.167V302.5Z" fill="#1C2B74"/>
<path d="M649.167 308.795H630.885V311.807H649.167V308.795Z" fill="#1C2B74"/>
<path d="M694.442 319.086L682.846 320.947C681.07 321.24 679.399 320.027 679.106 318.249L667.741 247.681C667.448 245.903 668.66 244.229 670.436 243.937L682.031 242.075C683.807 241.782 685.479 242.995 685.771 244.773L697.137 315.342C697.43 317.12 696.218 318.793 694.442 319.086Z" fill="#00C0A9"/>
<path d="M688.655 283.216L677.059 285.077C676.787 285.119 676.537 284.931 676.495 284.68L675.805 280.371C675.764 280.099 675.952 279.848 676.202 279.807L687.798 277.945C688.07 277.903 688.32 278.092 688.362 278.343L689.052 282.651C689.114 282.923 688.926 283.174 688.655 283.216Z" fill="#1C2B74"/>
<path d="M686.314 247.763L668.264 250.672L668.743 253.646L686.793 250.736L686.314 247.763Z" fill="#1C2B74"/>
<path d="M687.294 254.026L669.244 256.934L669.723 259.907L687.773 256.999L687.294 254.026Z" fill="#1C2B74"/>
<path d="M694.694 299.889L676.644 302.798L677.124 305.772L695.174 302.862L694.694 299.889Z" fill="#1C2B74"/>
<path d="M695.671 306.151L677.621 309.059L678.1 312.032L696.15 309.125L695.671 306.151Z" fill="#1C2B74"/>
<path d="M719.346 333.392H329.525V336.989H719.346V333.392Z" fill="#1B6C82"/>
<path d="M515.838 244.327C515.074 245.183 514.284 246.039 513.495 246.913C512.706 246.039 511.942 245.183 511.127 244.292C511.127 244.379 511.127 244.414 511.127 244.467C511.127 245.253 511.127 246.039 511.127 246.843C511.127 246.965 511.076 247 510.898 247C510.643 246.983 510.388 247 510.134 247C510.032 247 510.006 246.983 510.006 246.913C510.006 246.86 510.006 246.808 510.006 246.773C510.006 245.253 510.006 243.716 510.006 242.196C510.006 242.161 510.006 242.143 510.006 242.108C510.006 242.073 509.981 242.021 510.032 242.003C510.108 241.986 510.134 242.038 510.159 242.073C511.203 243.157 512.222 244.24 513.266 245.323C513.469 245.55 513.469 245.55 513.699 245.323C514.743 244.24 515.761 243.174 516.805 242.091C516.831 242.056 516.856 241.986 516.958 242.003C517.034 242.021 516.983 242.091 516.983 242.126C516.983 243.698 516.983 245.288 516.983 246.86C516.983 246.983 516.932 247 516.78 247C516.551 246.983 516.296 246.983 516.067 247C515.914 247 515.863 246.983 515.863 246.86C515.863 246.057 515.863 245.27 515.863 244.467C515.863 244.432 515.863 244.379 515.863 244.345C515.863 244.327 515.863 244.327 515.838 244.327Z" fill="#1689BD"/>
<path d="M528.884 243.815C528.118 244.841 527.325 245.866 526.533 246.912C525.741 245.866 524.974 244.841 524.182 243.815C524.156 243.815 524.156 243.815 524.131 243.815C524.131 243.878 524.131 243.92 524.131 243.983C524.131 244.924 524.131 245.887 524.131 246.829C524.131 246.975 524.08 246.996 523.926 246.996C523.696 246.975 523.441 246.975 523.211 246.996C523.032 247.017 523.006 246.954 523.006 246.808C523.006 245.196 523.006 243.585 523.006 241.974C523.006 241.702 523.006 241.409 523.006 241.137C523.006 241.095 522.981 241.032 523.032 241.011C523.109 240.99 523.134 241.053 523.16 241.095C523.799 241.89 524.463 242.706 525.102 243.502C525.536 244.046 525.971 244.569 526.38 245.113C526.457 245.217 526.508 245.238 526.61 245.113C527.683 243.774 528.757 242.434 529.83 241.095C529.856 241.053 529.881 240.97 529.958 241.011C530.034 241.032 529.983 241.095 529.983 241.137C529.983 243.041 529.983 244.945 529.983 246.85C529.983 246.975 529.932 246.996 529.804 246.996C529.549 246.996 529.319 246.975 529.063 246.996C528.884 247.017 528.859 246.954 528.859 246.808C528.859 245.845 528.859 244.883 528.859 243.899C528.859 243.857 528.859 243.836 528.859 243.794C528.91 243.836 528.91 243.815 528.884 243.815Z" fill="#1689BD"/>
<path d="M518.024 244.509C518.024 243.726 518.024 242.943 518.024 242.142C518.024 242.053 518.048 242 518.192 242C519.413 242 520.635 242 521.832 242C521.976 242 522 242.036 522 242.125C522 242.302 522 242.48 522 242.658C522 242.747 521.976 242.783 521.832 242.783C520.97 242.783 520.108 242.783 519.269 242.783C519.102 242.783 519.054 242.801 519.078 242.925C519.102 243.263 519.078 243.619 519.078 243.957C519.078 244.046 519.102 244.064 519.222 244.064C519.964 244.064 520.683 244.064 521.425 244.064C521.545 244.064 521.617 244.082 521.593 244.189C521.569 244.367 521.593 244.544 521.593 244.722C521.593 244.811 521.545 244.847 521.425 244.847C520.707 244.847 519.964 244.847 519.246 244.847C519.102 244.847 519.054 244.865 519.054 244.972C519.054 245.345 519.054 245.701 519.054 246.075C519.054 246.199 519.102 246.217 519.246 246.217C520.108 246.217 520.946 246.217 521.808 246.217C521.952 246.217 522 246.253 522 246.359C521.976 246.52 521.976 246.698 522 246.858C522 246.964 521.976 247 521.808 247C520.874 247 519.94 247 519.006 247C518.743 247 518.455 247 518.192 247C518.048 247 518 246.982 518 246.858C518.024 246.075 518.024 245.292 518.024 244.509Z" fill="#1689BD"/>
<path d="M542.025 244.491C542.025 243.708 542.025 242.925 542.025 242.125C542.025 242.018 542.073 242 542.215 242C543.428 242 544.617 242 545.829 242C545.948 242 546.019 242.018 545.995 242.125C545.972 242.302 545.972 242.48 545.995 242.658C545.995 242.765 545.948 242.783 545.829 242.783C544.973 242.783 544.141 242.783 543.285 242.783C543.143 242.783 543.071 242.801 543.071 242.925C543.095 243.263 543.071 243.601 543.071 243.922C543.071 244.046 543.119 244.064 543.261 244.064C543.975 244.064 544.688 244.064 545.401 244.064C545.544 244.064 545.591 244.1 545.591 244.206C545.567 244.384 545.591 244.544 545.591 244.722C545.591 244.829 545.544 244.847 545.425 244.847C544.712 244.847 543.998 244.847 543.261 244.847C543.119 244.847 543.071 244.883 543.071 244.989C543.071 245.363 543.071 245.719 543.071 246.093C543.071 246.199 543.119 246.217 543.238 246.217C544.094 246.217 544.949 246.217 545.781 246.217C545.948 246.217 545.972 246.253 545.972 246.359C545.972 246.537 545.972 246.715 545.972 246.893C545.972 246.964 545.948 247 545.829 247C544.593 247 543.357 247 542.12 247C541.978 247 542.001 246.929 542.001 246.875C542.025 246.075 542.025 245.292 542.025 244.491Z" fill="#43BCA8"/>
<path d="M568.024 244.509C568.024 243.72 568.024 242.932 568.024 242.125C568.024 242.036 568.048 242 568.191 242C569.411 242 570.631 242 571.827 242C571.97 242 572.018 242.018 571.994 242.125C571.994 242.287 571.97 242.466 571.994 242.627C572.018 242.753 571.946 242.789 571.779 242.789C570.942 242.789 570.105 242.789 569.268 242.789C569.1 242.789 569.052 242.824 569.076 242.932C569.076 243.272 569.076 243.613 569.076 243.935C569.076 244.043 569.1 244.079 569.244 244.079C569.961 244.079 570.679 244.079 571.42 244.079C571.564 244.079 571.611 244.097 571.611 244.204C571.588 244.384 571.611 244.563 571.611 244.742C571.611 244.832 571.564 244.849 571.444 244.849C570.727 244.849 570.009 244.849 569.268 244.849C569.1 244.849 569.052 244.885 569.052 245.011C569.052 245.369 569.076 245.71 569.052 246.068C569.052 246.211 569.124 246.229 569.292 246.229C570.129 246.229 570.966 246.229 571.803 246.229C571.946 246.229 571.994 246.247 571.994 246.355C571.97 246.534 571.994 246.713 571.994 246.892C571.994 246.982 571.946 247 571.827 247C570.607 247 569.387 247 568.167 247C568.024 247 568 246.964 568 246.875C568.024 246.104 568.024 245.315 568.024 244.509Z" fill="#43BCA8"/>
<path d="M532.119 244.599C532.119 245.381 532.119 246.11 532.119 246.856C532.119 246.963 532.095 246.999 531.92 246.999C531.672 246.981 531.423 246.999 531.174 246.999C531.05 246.999 531 246.963 531 246.874C531 246.092 531 245.31 531 244.528C531 243.728 531 242.929 531 242.129C531 242.022 531.025 241.987 531.174 242.004C531.423 242.022 531.672 242.004 531.92 242.004C532.045 242.004 532.095 242.022 532.095 242.129C532.095 242.84 532.095 243.551 532.095 244.262C532.095 244.297 532.095 244.315 532.095 244.386C532.219 244.262 532.294 244.173 532.393 244.084C533.04 243.426 533.711 242.769 534.358 242.111C534.433 242.04 534.507 242.004 534.657 242.004C535.005 242.004 535.353 242.004 535.726 242.004C535.726 242.075 535.677 242.111 535.627 242.147C534.881 242.875 534.159 243.604 533.413 244.333C533.338 244.421 533.313 244.475 533.413 244.546C534.284 245.346 535.129 246.145 536 246.963C535.826 246.999 535.652 246.981 535.478 246.981C535.204 246.981 534.905 247.034 534.682 246.963C534.458 246.892 534.333 246.679 534.184 246.536C533.512 245.914 532.866 245.31 532.194 244.688C532.194 244.67 532.169 244.653 532.119 244.599Z" fill="#1689BD"/>
<path d="M538.454 247.997C537.665 247.997 536.952 247.811 536.366 247.335C536.239 247.231 536.137 247.107 536.035 246.983C535.985 246.921 535.985 246.88 536.061 246.838C536.29 246.714 536.519 246.569 536.748 246.424C536.825 246.383 536.876 246.383 536.926 246.445C537.487 247.107 538.581 247.211 539.319 246.921C539.981 246.652 540.032 246.176 539.498 245.782C539.167 245.555 538.785 245.41 538.377 245.285C537.996 245.141 537.614 245.016 537.257 244.851C535.883 244.209 536.163 242.801 537.308 242.284C538.097 241.932 538.938 241.911 539.778 242.201C540.185 242.346 540.49 242.594 540.669 242.925C540.72 243.008 540.694 243.05 540.618 243.112C540.414 243.215 540.21 243.339 540.007 243.443C539.905 243.505 539.879 243.484 539.829 243.402C539.396 242.843 538.454 242.718 537.817 243.112C537.359 243.402 537.359 243.836 537.843 244.085C538.148 244.25 538.53 244.354 538.861 244.478C539.345 244.644 539.854 244.83 540.261 245.099C541.356 245.803 541.203 247.087 540.007 247.666C539.549 247.915 539.014 248.018 538.454 247.997Z" fill="#43BCA8"/>
<path d="M574.944 247.997C574.31 247.997 573.738 247.811 573.267 247.335C573.144 247.211 573.001 247.087 573.001 246.921C572.981 246.755 573.226 246.714 573.328 246.61C573.431 246.528 573.533 246.403 573.656 246.403C573.778 246.383 573.819 246.569 573.901 246.652C574.351 247.107 575.149 247.211 575.701 246.9C576.172 246.631 576.212 246.176 575.824 245.824C575.558 245.575 575.231 245.43 574.903 245.285C574.597 245.141 574.29 245.016 573.983 244.851C572.858 244.209 573.103 242.78 574.024 242.284C574.658 241.932 575.312 241.911 575.987 242.201C576.315 242.346 576.54 242.594 576.703 242.905C576.744 243.008 576.765 243.07 576.642 243.132C576.478 243.236 576.335 243.339 576.192 243.443C576.11 243.505 576.09 243.505 576.028 243.422C575.701 242.884 574.965 242.739 574.453 243.112C574.044 243.402 574.044 243.857 574.474 244.126C574.719 244.292 575.006 244.395 575.272 244.499C575.64 244.664 576.008 244.851 576.356 245.078C577.317 245.762 577.153 247.149 576.192 247.687C575.803 247.915 575.394 248.018 574.944 247.997Z" fill="#43BCA8"/>
<path d="M566.37 246.382C566.569 246.609 566.769 246.836 566.968 247.063C567.043 247.146 566.968 247.166 566.918 247.207C565.871 248.033 564.4 248.24 563.078 247.703C561.707 247.166 560.909 246.01 561.008 244.75C561.158 243.16 562.879 241.921 564.799 242.004C565.622 242.045 566.345 242.355 566.943 242.809C567.018 242.871 566.993 242.912 566.943 242.974C566.769 243.16 566.619 243.325 566.47 243.511C566.42 243.594 566.37 243.594 566.295 243.532C565.946 243.263 565.572 243.057 565.098 242.974C564.076 242.789 563.278 243.098 562.654 243.738C562.031 244.399 561.931 245.122 562.38 245.886C562.829 246.629 563.577 247.042 564.599 247.063C565.223 247.084 565.771 246.836 566.22 246.505C566.245 246.464 566.295 246.423 566.37 246.382Z" fill="#43BCA8"/>
<path d="M552 242.021C552.347 242.021 552.671 242.021 552.995 242.021C553.087 242.021 553.11 242.084 553.133 242.126C553.688 243.28 554.244 244.434 554.822 245.587C554.868 245.713 554.937 245.818 555.007 245.965C555.076 245.839 555.122 245.713 555.169 245.608C555.724 244.455 556.279 243.322 556.834 242.168C556.88 242.042 556.95 242 557.112 242C557.412 242.021 557.69 242 557.99 242C558.014 242.042 557.99 242.084 557.967 242.126C557.019 244.035 556.071 245.944 555.099 247.874C555.076 247.916 555.076 248 555.007 248C554.914 248 554.914 247.916 554.891 247.874C553.943 245.965 552.995 244.056 552.046 242.147C552.046 242.126 552.023 242.084 552 242.021Z" fill="#43BCA8"/>
<path d="M548.21 231C549.079 231 549.947 231 550.79 231C550.947 231 551 230.959 551 230.834C551 229.386 551 227.959 551 226.51C551 225.062 551 223.614 551 222.166C551 222.041 550.947 222 550.79 222C549.921 222 549.053 222 548.21 222C548.053 222 548 222.041 548 222.166C548 225.062 548 227.938 548 230.834C548 230.979 548.053 231 548.21 231Z" fill="url(#paint0_linear_14_8)"/>
<path d="M550.829 232.265C548.957 232.265 547.084 232.265 545.211 232.265C543.263 232.265 541.314 232.265 539.366 232.265C539.29 232.265 539.214 232.265 539.138 232.265C539.189 232.027 539.315 231.81 539.416 231.572C539.416 231.55 539.442 231.55 539.442 231.528C539.998 230.662 540.884 230.077 541.947 229.708C542.655 229.492 543.364 229.448 544.098 229.47C544.3 229.47 544.503 229.47 544.705 229.47C544.806 229.47 544.832 229.448 544.832 229.362C544.832 228.603 544.832 227.845 544.832 227.108C544.832 227 544.756 227 544.68 227C544.3 227 543.921 227 543.516 227C542.883 227 542.225 227.065 541.618 227.195C540.656 227.412 539.771 227.758 539.011 228.322C538.809 228.43 538.657 228.56 538.505 228.69C537.847 229.21 537.291 229.817 536.911 230.51C536.531 231.095 536.304 231.745 536.177 232.395C536.025 233.11 536.076 233.825 536.051 234.54C536.051 234.692 536.101 234.735 536.278 234.735C539.543 234.735 542.807 234.735 546.046 234.735C546.122 234.735 546.173 234.735 546.249 234.735C546.755 234.735 547.286 234.735 547.792 234.735C547.944 234.735 547.97 234.778 547.894 234.865C547.818 235.038 547.742 235.212 547.641 235.385C547.388 235.775 547.084 236.122 546.679 236.425C545.768 237.14 544.705 237.53 543.465 237.53C541.061 237.53 538.632 237.53 536.228 237.53C536.076 237.53 536 237.552 536 237.703C536 238.397 536 239.112 536 239.805C536 239.957 536.051 240 536.228 240C538.682 240 541.137 240 543.592 240C544.452 240 545.313 239.87 546.122 239.588C547.919 238.96 549.26 237.898 550.171 236.447C550.627 235.775 550.855 235.038 550.93 234.258C551.006 233.652 550.956 233.045 550.981 232.438C551.032 232.308 550.981 232.265 550.829 232.265Z" fill="url(#paint1_linear_14_8)"/>
<path d="M542.19 226C543.057 226 543.95 226 544.816 226C544.947 226 545 225.981 545 225.865C545 224.628 545 223.391 545 222.135C545 222.019 544.947 222 544.816 222C543.95 222 543.057 222 542.19 222C542.033 222 542.006 222.019 542.006 222.135C542.006 222.754 542.006 223.372 542.006 223.99C542.006 224.609 542.006 225.227 542.006 225.845C541.98 225.981 542.033 226 542.19 226Z" fill="url(#paint2_linear_14_8)"/>
<path d="M536.184 226C537.053 226 537.947 226 538.816 226C538.974 226 539 225.961 539 225.864C539 225.243 539 224.641 539 224.019C539 223.379 539 222.757 539 222.117C539 222.019 538.974 222 538.842 222C537.947 222 537.079 222 536.184 222C536.026 222 536 222.039 536 222.136C536 223.379 536 224.621 536 225.864C536 225.981 536.053 226 536.184 226Z" fill="url(#paint3_linear_14_8)"/>
<path d="M559.978 244.509C559.978 245.292 559.978 246.075 559.978 246.858C559.978 246.964 559.933 247 559.8 247C559.578 247 559.333 247 559.111 247C559.022 247 559 246.982 559 246.911C559 246.893 559 246.858 559 246.84C559 245.274 559 243.708 559 242.16C559 242.036 559.044 242 559.2 242C559.4 242.018 559.6 242.018 559.8 242C559.956 242 560 242.018 560 242.16C559.978 242.943 559.978 243.726 559.978 244.509Z" fill="#43BCA8"/>
<path d="M552 247C551.567 247 551.159 247 550.75 247C550.654 247 550.654 246.946 550.606 246.911C550.053 246.339 549.524 245.75 548.971 245.179C548.899 245.107 548.851 245.071 548.731 245.071C548.562 245.071 548.418 245.071 548.25 245.071C548.106 245.071 548.058 245.089 548.058 245.196C548.058 245.75 548.058 246.304 548.058 246.857C548.058 246.964 548.034 247 547.865 247C547.625 246.982 547.385 247 547.144 247C547.024 247 547 246.964 547 246.893C547 246.536 547 246.179 547 245.821C547 244.589 547 243.357 547 242.143C547 242.036 547.048 242 547.192 242C547.841 242 548.514 242 549.163 242C550.438 242 551.471 242.804 551.351 243.75C551.279 244.304 550.894 244.732 550.197 244.964C550.077 245 550.053 245.036 550.149 245.107C550.726 245.696 551.303 246.286 551.904 246.893C551.928 246.911 551.952 246.946 552 247ZM550.269 243.536C550.245 243.107 549.74 242.768 549.115 242.768C548.803 242.768 548.514 242.768 548.202 242.768C548.082 242.768 548.058 242.786 548.058 242.875C548.058 243.107 548.058 243.339 548.058 243.589C548.058 243.821 548.058 244.071 548.058 244.304C548.058 244.357 548.058 244.411 548.178 244.411C548.514 244.411 548.851 244.429 549.212 244.411C549.837 244.375 550.293 243.982 550.269 243.536Z" fill="#43BCA8"/>
</g>
<defs>
<linearGradient id="paint0_linear_14_8" x1="545.926" y1="229.317" x2="551.385" y2="222.374" gradientUnits="userSpaceOnUse">
<stop stop-color="#008DC3"/>
<stop offset="1" stop-color="#00BDAA"/>
</linearGradient>
<linearGradient id="paint1_linear_14_8" x1="538.474" y1="239.587" x2="549.689" y2="221.205" gradientUnits="userSpaceOnUse">
<stop stop-color="#008DC3"/>
<stop offset="0.2682" stop-color="#0092C0"/>
<stop offset="0.5916" stop-color="#00A1B9"/>
<stop offset="0.9421" stop-color="#00B9AC"/>
<stop offset="0.9905" stop-color="#00BDAA"/>
</linearGradient>
<linearGradient id="paint2_linear_14_8" x1="541.416" y1="225.526" x2="544.321" y2="221.578" gradientUnits="userSpaceOnUse">
<stop stop-color="#008DC3"/>
<stop offset="1" stop-color="#00BDAA"/>
</linearGradient>
<linearGradient id="paint3_linear_14_8" x1="535.432" y1="225.522" x2="538.356" y2="221.559" gradientUnits="userSpaceOnUse">
<stop stop-color="#008DC3"/>
<stop offset="1" stop-color="#00BDAA"/>
</linearGradient>
<clipPath id="clip0_14_8">
<rect width="795" height="621" fill="white"/>
</clipPath>
</defs>
</svg>
