<svg width="689" height="646" viewBox="0 0 689 646" fill="none" xmlns="http://www.w3.org/2000/svg">
<path d="M306.944 606.877C306.944 606.877 114.833 596.868 25.4135 513.304C-64.0064 429.74 143.106 341.668 71.8434 254.927C0.580939 168.186 25.1856 28.4655 231.147 74.5344C437.098 120.615 469.232 26.12 548.525 88.7331C627.158 150.834 511.356 254.301 555.702 322.152C600.059 390.014 707.704 397.529 686.175 511.3C664.646 625.083 434.455 620.119 306.944 606.877Z" fill="#B9EAFE"/>
<path d="M581.673 165.044H235.761V645.989H581.673V165.044Z" fill="#7CDBFD"/>
<path d="M253.52 606.774V204.27C253.52 194.42 261.516 186.427 271.369 186.427H546.053C555.907 186.427 563.903 194.42 563.903 204.27V606.774C563.903 616.623 555.907 624.616 546.053 624.616H271.369C261.516 624.616 253.52 616.635 253.52 606.774Z" fill="white"/>
<path d="M496.719 209.519H320.715L323.7 164.85H493.734L496.719 209.519Z" fill="#008DC3"/>
<path d="M428.543 138.502H388.891L385.906 164.862H431.55L428.543 138.502ZM408.711 158.793C404.781 158.793 401.592 155.605 401.592 151.676C401.592 147.748 404.781 144.56 408.711 144.56C412.641 144.56 415.831 147.748 415.831 151.676C415.831 155.605 412.653 158.793 408.711 158.793Z" fill="#008DC3"/>
<path d="M329.35 296.191H286.907V253.766H329.35V296.191ZM289.071 294.027H327.197V255.918H289.071V294.027Z" fill="#7CDBFD"/>
<path d="M527.384 258.593H340.263C339.123 258.593 338.212 257.671 338.212 256.544C338.212 255.405 339.135 254.494 340.263 254.494H527.384C528.523 254.494 529.434 255.417 529.434 256.544C529.445 257.671 528.523 258.593 527.384 258.593Z" fill="#7CDBFD"/>
<path d="M527.384 277.028H340.263C339.123 277.028 338.212 276.105 338.212 274.978C338.212 273.84 339.135 272.929 340.263 272.929H527.384C528.523 272.929 529.434 273.851 529.434 274.978C529.445 276.105 528.523 277.028 527.384 277.028Z" fill="#7CDBFD"/>
<path d="M527.384 295.462H340.263C339.123 295.462 338.212 294.54 338.212 293.413C338.212 292.274 339.135 291.363 340.263 291.363H527.384C528.523 291.363 529.434 292.285 529.434 293.413C529.445 294.551 528.523 295.462 527.384 295.462Z" fill="#7CDBFD"/>
<path d="M527.384 404.611H340.263C339.123 404.611 338.212 403.689 338.212 402.561C338.212 401.423 339.135 400.512 340.263 400.512H527.384C528.523 400.512 529.434 401.434 529.434 402.561C529.445 403.689 528.523 404.611 527.384 404.611Z" fill="#7CDBFD"/>
<path d="M527.384 423.045H340.263C339.123 423.045 338.212 422.123 338.212 420.996C338.212 419.857 339.135 418.946 340.263 418.946H527.384C528.523 418.946 529.434 419.869 529.434 420.996C529.445 422.134 528.523 423.045 527.384 423.045Z" fill="#7CDBFD"/>
<path d="M527.384 441.491H340.263C339.123 441.491 338.212 440.569 338.212 439.442C338.212 438.303 339.135 437.392 340.263 437.392H527.384C528.523 437.392 529.434 438.314 529.434 439.442C529.445 440.569 528.523 441.491 527.384 441.491Z" fill="#7CDBFD"/>
<path d="M527.384 477.62H340.263C339.123 477.62 338.212 476.698 338.212 475.57C338.212 474.432 339.135 473.521 340.263 473.521H527.384C528.523 473.521 529.434 474.443 529.434 475.57C529.445 476.698 528.523 477.62 527.384 477.62Z" fill="#7CDBFD"/>
<path d="M527.384 496.054H340.263C339.123 496.054 338.212 495.132 338.212 494.005C338.212 492.866 339.135 491.955 340.263 491.955H527.384C528.523 491.955 529.434 492.877 529.434 494.005C529.445 495.143 528.523 496.054 527.384 496.054Z" fill="#7CDBFD"/>
<path d="M527.965 514.5H339.693C338.873 514.5 338.212 513.84 338.212 513.02V511.881C338.212 511.061 338.873 510.401 339.693 510.401H527.953C528.773 510.401 529.434 511.061 529.434 511.881V513.02C529.445 513.828 528.773 514.5 527.965 514.5Z" fill="#7CDBFD"/>
<path d="M527.384 550.629H340.263C339.123 550.629 338.212 549.706 338.212 548.579C338.212 547.44 339.135 546.53 340.263 546.53H527.384C528.523 546.53 529.434 547.452 529.434 548.579C529.445 549.718 528.523 550.629 527.384 550.629Z" fill="#7CDBFD"/>
<path d="M527.384 569.074H340.263C339.123 569.074 338.212 568.152 338.212 567.025C338.212 565.886 339.135 564.975 340.263 564.975H527.384C528.523 564.975 529.434 565.898 529.434 567.025C529.445 568.152 528.523 569.074 527.384 569.074Z" fill="#7CDBFD"/>
<path d="M527.384 587.509H340.263C339.123 587.509 338.212 586.586 338.212 585.459C338.212 584.321 339.135 583.41 340.263 583.41H527.384C528.523 583.41 529.434 584.332 529.434 585.459C529.445 586.586 528.523 587.509 527.384 587.509Z" fill="#7CDBFD"/>
<path d="M527.384 331.602H340.263C339.123 331.602 338.212 330.68 338.212 329.553C338.212 328.414 339.135 327.503 340.263 327.503H527.384C528.523 327.503 529.434 328.425 529.434 329.553C529.445 330.68 528.523 331.602 527.384 331.602Z" fill="#7CDBFD"/>
<path d="M527.384 350.037H340.263C339.123 350.037 338.212 349.114 338.212 347.987C338.212 346.848 339.135 345.938 340.263 345.938H527.384C528.523 345.938 529.434 346.86 529.434 347.987C529.445 349.114 528.523 350.037 527.384 350.037Z" fill="#7CDBFD"/>
<path d="M527.384 368.471H340.263C339.123 368.471 338.212 367.549 338.212 366.421C338.212 365.283 339.135 364.372 340.263 364.372H527.384C528.523 364.372 529.434 365.294 529.434 366.421C529.445 367.56 528.523 368.471 527.384 368.471Z" fill="#7CDBFD"/>
<path d="M329.35 369.2H286.907V326.774H329.35V369.2ZM289.071 367.036H327.197V328.926H289.071V367.036Z" fill="#7CDBFD"/>
<path d="M329.35 442.208H286.907V399.783H329.35V442.208ZM289.071 440.045H327.197V401.935H289.071V440.045Z" fill="#7CDBFD"/>
<path d="M329.35 588.226H286.907V545.801H329.35V588.226ZM289.071 586.074H327.197V547.964H289.071V586.074Z" fill="#7CDBFD"/>
<path d="M329.35 515.217H286.907V472.792H329.35V515.217ZM289.071 513.065H327.197V474.955H289.071V513.065Z" fill="#7CDBFD"/>
<path d="M306.522 283.7C305.93 283.7 305.349 283.45 304.939 283.017L295.849 273.259C295.04 272.382 295.086 271.016 295.963 270.208C296.828 269.399 298.195 269.445 299.015 270.321L306.18 278.007L326.445 245.306C327.072 244.292 328.404 243.974 329.418 244.611C330.432 245.237 330.751 246.57 330.113 247.583L308.356 282.687C308.003 283.256 307.399 283.632 306.727 283.7C306.659 283.7 306.591 283.7 306.522 283.7Z" fill="#008DC3"/>
<path d="M644.552 467.588C644.552 467.588 642.114 466.04 638.503 467.076C639.586 472.803 639.859 474.158 639.859 474.158L644.757 472.541L644.552 467.588Z" fill="#FD94A8"/>
<path d="M639.882 468.386L593.201 467.076C587.939 483.074 581.571 510.435 579.885 524.884C578.211 539.333 578.017 566.979 583.599 587.304L599.455 636.333H610.994L604.991 595.046C601.562 571.511 603.761 547.497 611.381 524.975L617.533 506.803L632.124 636.333H641.454C644.917 607.23 653.631 519.237 639.882 468.386Z" fill="#FD94A8"/>
<path d="M585.33 646H612.406L611.005 636.333H599.466C599.455 636.333 585.33 636.139 585.33 646Z" fill="#008DC3"/>
<path d="M622.784 646C624.925 646 623.775 646 625.426 646H633.56H641.009L641.454 636.333H632.124C627.078 636.276 622.784 640.66 622.784 646Z" fill="#008DC3"/>
<path d="M599.911 354.318V377.58C599.911 377.58 600.104 386.404 612.145 386.404C626.064 386.404 624.857 373.026 624.857 373.026C624.857 373.026 630.86 372.786 630.86 367.754C630.86 362.721 624.857 363.438 624.857 363.438V354.329H599.911V354.318Z" fill="#FD94A8"/>
<path d="M624.287 391.722C613.808 386.962 601.756 390.879 592.859 397.187C584.806 402.892 575.898 416.92 564.769 408.972C557.251 403.598 555.28 397.404 551.886 388.818L546.429 390.048C546.429 390.048 547.466 399.966 554.825 412.946C562.81 427.031 578.598 432.325 592.381 425.972C593.121 425.63 593.862 425.254 594.602 424.844L592.825 478.69L639.517 478.679C639.312 453.618 650.84 403.791 624.287 391.722Z" fill="#36CAFA"/>
<path d="M619.537 390.048C619.537 390.048 649.735 393.6 661.673 429.387C669.818 459.117 644.746 472.553 644.746 472.553L644.541 467.588C644.541 467.588 661.263 445.1 640.235 426.552" fill="#36CAFA"/>
<path d="M599.91 362.539C599.91 362.539 595.092 360.375 594.124 356.481C592.802 351.107 599.409 339.151 618.056 340.631C636.715 342.112 646.204 356.071 646.01 376.384C645.816 396.697 657.025 395.843 660.841 412.354C664.646 428.852 652.139 441.127 626.326 439.43C600.526 437.734 596.288 416.999 601.574 404.52C606.87 392.04 615.391 367.196 599.91 362.539Z" fill="#008DC3"/>
<path d="M639.882 468.386C624.766 470.025 609.183 469.479 593.201 467.076C593.201 467.076 574.315 497.751 574.315 556.538C599.91 564.964 646.682 561.389 656.068 556.538C656.068 556.538 652.811 501.747 639.882 468.386Z" fill="#00C0A9"/>
<path d="M551.886 388.807C551.886 388.807 553.993 379.538 550.769 378.65C549.653 373.64 548.765 372.422 547.762 372.752C546.76 373.082 547.762 378.423 547.762 378.423C547.762 378.423 543.365 380.176 542.477 382.522C541.588 384.867 546.43 390.037 546.43 390.037L551.886 388.807Z" fill="#FD94A8"/>
<path d="M604.228 369.348C604.125 370.532 603.453 371.431 602.724 371.374C601.995 371.318 601.482 370.304 601.573 369.131C601.676 367.947 602.348 367.048 603.077 367.105C603.818 367.162 604.33 368.164 604.228 369.348Z" fill="#3F327A"/>
<path d="M599.911 368.277C599.911 368.277 593.93 376.043 599.911 376.077V368.277Z" fill="#F57F9A"/>
<path d="M601.482 378.502L605.788 377.523C605.788 377.523 605.378 380.21 602.496 381.019C602.508 381.019 601.528 379.766 601.482 378.502Z" fill="white"/>
<path d="M126.008 636.139C126.008 636.139 110.619 636.276 110.619 646C128.696 646 137.695 646 137.695 646L138.584 636.139H126.008Z" fill="#008DC3"/>
<path d="M186.711 636.139C186.711 636.139 202.1 636.276 202.1 646C184.023 646 175.764 646 175.764 646L176.459 636.139H186.711Z" fill="#008DC3"/>
<path d="M147.366 381.201C147.366 381.201 135.132 375.804 133.219 363.939C131.305 352.075 139.449 343.091 153.119 340.449C166.788 337.808 170.843 345.607 165.159 349.74C159.475 353.874 147.366 381.201 147.366 381.201Z" fill="#008DC3"/>
<path d="M145.794 392.337L143.368 371.466L158.985 369.655L161.241 389.069C156.263 390.481 151.114 391.574 145.794 392.337Z" fill="#F57F9A"/>
<path d="M165.159 349.741C165.512 349.706 167.619 366.797 167.802 368.152C168.166 370.896 169.066 373.948 167.995 376.601C166.31 380.779 162.004 382.658 157.789 383.284C144.029 385.334 143.243 371.921 143.243 371.921C143.243 371.921 137.274 372.57 136.533 367.583C135.793 362.596 141.83 362.425 141.83 362.425L140.486 353.407L165.159 349.741Z" fill="#FD94A8"/>
<path d="M249.088 315.65L23.9099 371.5C13.5896 374.062 3.13256 367.765 0.580959 357.449C-1.98203 347.133 4.31723 336.681 14.6375 334.13L239.828 278.292L249.088 315.65Z" fill="#FDC25A"/>
<path d="M32.5329 369.359L23.8984 371.5C13.5781 374.062 3.12114 367.765 0.569546 357.449C-1.99344 347.133 4.30582 336.681 14.6261 334.13L23.2605 331.99L32.5329 369.359Z" fill="#FD819D"/>
<path d="M35.5622 328.943L23.2677 331.992L32.5444 369.368L44.8389 366.319L35.5622 328.943Z" fill="#EEEAFD"/>
<path d="M239.816 278.28L249.088 315.65L281.587 294.654L278.363 281.662L239.816 278.28Z" fill="#FEC6BD"/>
<path d="M278.363 281.662L281.587 294.654L298.89 283.461L278.363 281.662Z" fill="#008DC3"/>
<path d="M63.5735 366.16C63.5735 366.16 64.052 356.777 62.5825 356.185C61.1814 355.866 60.9308 362.197 60.9308 362.197L47.9108 365.568C47.9108 365.568 49.4486 368.118 54.5176 368.118" fill="#FD94A8"/>
<path d="M152.959 364.281C153.13 365.454 152.686 366.49 151.957 366.592C151.228 366.695 150.499 365.841 150.328 364.668C150.157 363.495 150.601 362.459 151.33 362.356C152.059 362.254 152.788 363.108 152.959 364.281Z" fill="#3F327A"/>
<path d="M164.122 362.63C164.293 363.803 163.849 364.839 163.12 364.941C162.391 365.044 161.662 364.19 161.491 363.017C161.32 361.844 161.764 360.808 162.494 360.706C163.223 360.603 163.952 361.457 164.122 362.63Z" fill="#3F327A"/>
<path d="M153.278 372.559L163.849 370.919C163.849 370.919 164.202 374.551 159.555 375.268C154.486 376.066 153.278 372.559 153.278 372.559Z" fill="white"/>
<path d="M156.855 362.049C156.855 362.049 163.804 368.46 157.949 369.655L156.855 362.049Z" fill="#F57F9A"/>
<path d="M141.944 364.953C141.944 364.953 138.242 365.249 138.948 367.947C139.654 370.646 142.787 369.655 142.787 369.655L141.944 364.953Z" fill="#F57F9A"/>
<path d="M191.108 464.958C191.074 463.911 191.233 465.96 191.108 464.958V464.958Z" fill="#36CAFA"/>
<path d="M191.108 464.958H129.801L128.058 636.139H138.595L161.548 506.017L176.459 636.139H186.711C186.711 636.139 193.056 522.937 191.108 464.958Z" fill="#36CAFA"/>
<path d="M225.782 325.898C218.367 326.569 218.367 326.569 218.367 326.569C218.367 326.569 223.789 368.118 164.646 387.998C164.646 387.998 102.736 410.27 63.471 366.057L54.5176 368.118C54.5176 368.118 78.0858 411.875 130.268 418.331L129.79 464.947C150.305 468.329 170.741 468.363 191.097 464.947C191.826 444.748 189.547 406.41 189.547 406.41C189.547 406.41 235.465 385.152 225.782 325.898Z" fill="#00C0A9"/>
<path d="M163.143 467.497H162.391C162.391 431.278 156.49 390.777 156.433 390.31L157.219 390.116C157.276 390.583 163.143 431.243 163.143 467.497Z" fill="#C3B8FD"/>
<path d="M130.28 418.331L129.528 418.24C129.551 418.104 131.612 404.486 130.405 393.589L131.145 393.578C132.353 404.577 130.302 418.195 130.28 418.331Z" fill="#C3B8FD"/>
<path d="M189.559 406.421C189.502 406.239 183.601 388.237 177.883 382.738L178.578 382.408C184.444 388.044 190.026 405.328 190.242 406.08L189.559 406.421Z" fill="#C3B8FD"/>
<path d="M154.827 394.489C155.324 394.489 155.727 394.086 155.727 393.589C155.727 393.092 155.324 392.69 154.827 392.69C154.33 392.69 153.927 393.092 153.927 393.589C153.927 394.086 154.33 394.489 154.827 394.489Z" fill="#C3B8FD"/>
<path d="M155.727 408.517C156.224 408.517 156.627 408.114 156.627 407.617C156.627 407.12 156.224 406.718 155.727 406.718C155.23 406.718 154.827 407.12 154.827 407.617C154.827 408.114 155.23 408.517 155.727 408.517Z" fill="#C3B8FD"/>
<path d="M157.356 422.544C157.853 422.544 158.256 422.142 158.256 421.645C158.256 421.148 157.853 420.745 157.356 420.745C156.859 420.745 156.456 421.148 156.456 421.645C156.456 422.142 156.859 422.544 157.356 422.544Z" fill="#C3B8FD"/>
<path d="M158.267 436.584C158.764 436.584 159.167 436.181 159.167 435.684C159.167 435.187 158.764 434.785 158.267 434.785C157.77 434.785 157.368 435.187 157.368 435.684C157.368 436.181 157.77 436.584 158.267 436.584Z" fill="#C3B8FD"/>
<path d="M159.315 450.612C159.812 450.612 160.215 450.209 160.215 449.712C160.215 449.215 159.812 448.812 159.315 448.812C158.818 448.812 158.416 449.215 158.416 449.712C158.416 450.209 158.818 450.612 159.315 450.612Z" fill="#C3B8FD"/>
<path d="M160.215 464.639C160.712 464.639 161.115 464.237 161.115 463.74C161.115 463.243 160.712 462.84 160.215 462.84C159.718 462.84 159.315 463.243 159.315 463.74C159.315 464.237 159.718 464.639 160.215 464.639Z" fill="#C3B8FD"/>
<path d="M218.389 326.592C218.389 326.592 217.934 317.609 219.335 317.051C220.679 316.743 220.907 322.641 220.907 322.641L229.997 320.387C229.997 320.387 230.043 323.199 225.794 325.898" fill="#FD94A8"/>
<path d="M480.908 60.8253C472.069 59.7209 460.154 66.9284 468.446 101.167C476.739 135.405 519.41 136.59 519.41 136.59L522.166 128.904C467.284 116.345 489.747 61.9298 480.908 60.8253Z" fill="#F57F9A"/>
<path d="M545.108 229.456C545.108 229.456 560.497 229.593 560.497 239.317H533.421L534.252 229.456H545.108Z" fill="#008DC3"/>
<path d="M472.285 128.323L502.3 172.855C538.854 172.855 534.241 229.445 534.241 229.445H547.341C547.341 229.445 551.236 201.161 545.222 178.878C533.614 135.907 472.285 128.323 472.285 128.323Z" fill="#36CAFA"/>
<path d="M463.799 42.1177C463.799 42.1177 453.228 36.5726 451.724 23.5922C450.22 10.6119 458.923 2.45933 470.314 0.295938C481.694 -1.86745 498.701 8.41435 489.918 17.7283" fill="#008DC3"/>
<path d="M475.315 120.376L431.573 115.673C431.482 118.053 431.573 121.139 431.573 123.666L475.634 123.291C475.383 122.334 475.258 121.366 475.315 120.376Z" fill="#36CAFA"/>
<path d="M494.281 140.541C486.957 136.738 477.502 130.35 475.634 123.291L431.573 123.666C431.573 178.833 453.945 172.855 487.914 172.855C518.339 172.855 503.018 230.868 503.018 230.868H516.209C516.209 230.868 543.81 157.711 494.281 140.541Z" fill="#36CAFA"/>
<path d="M489.782 73.9081C487.993 64.5714 481.147 50.1336 474.028 48.4598C462.83 45.8296 452.852 48.6192 445.094 55.1208C437.178 61.7476 432.917 71.7561 432.644 82.0835C432.405 90.9078 432.029 104.344 431.573 115.684L475.315 120.387C476.352 101.406 493.119 91.3063 489.782 73.9081Z" fill="#00C0A9"/>
<path d="M500.672 108.158L494.782 135.36L464.949 136.931V139.163L491.456 153.225L543.798 147.407L543.912 145.311L555.155 105.812L500.672 108.158Z" fill="#00C0A9"/>
<path d="M454.845 55.8153C445.311 54.6198 428.042 62.9659 436.973 99.8802C445.903 136.794 494.27 137.865 494.27 137.865L495.978 129.735C436.813 116.185 464.38 56.9995 454.845 55.8153Z" fill="#FD94A8"/>
<path d="M469.392 55.656C464.79 55.155 461.463 51.0104 461.976 46.4103L463.434 33.0884L479.564 34.8533L478.049 48.699C477.582 53.0144 473.697 56.1342 469.392 55.656Z" fill="#F57F9A"/>
<path d="M514.102 230.447C514.102 230.447 529.138 233.692 527.179 243.211L500.66 237.734L503.633 228.283L514.102 230.447Z" fill="#008DC3"/>
<path d="M490.271 14.5288L487.743 37.6544C487.743 37.6544 486.592 46.399 474.62 45.0896C460.791 43.5752 463.434 30.4013 463.434 30.4013C463.434 30.4013 457.499 29.5132 458.046 24.5032C458.593 19.4933 464.482 20.8596 464.482 20.8596L465.473 11.7961L490.271 14.5288Z" fill="#FD94A8"/>
<path d="M464.995 8.01587L464.152 20.814L466.476 26.1428L469.585 8.41439L464.995 8.01587Z" fill="#008DC3"/>
<path d="M475.395 27.1448C475.258 28.3176 474.563 29.2057 473.834 29.126C473.105 29.0463 472.615 28.0215 472.752 26.8487C472.889 25.6759 473.584 24.7878 474.313 24.8675C475.042 24.9472 475.531 25.9606 475.395 27.1448Z" fill="#3F327A"/>
<path d="M486.603 28.4199C486.467 29.5927 485.772 30.4808 485.043 30.4011C484.314 30.3214 483.824 29.2967 483.961 28.1239C484.097 26.9511 484.792 26.063 485.521 26.1427C486.262 26.2224 486.74 27.2471 486.603 28.4199Z" fill="#3F327A"/>
<path d="M479.723 26.9854C479.723 26.9854 484.792 34.9671 478.823 34.6142L479.723 26.9854Z" fill="#F57F9A"/>
<path d="M464.573 23.3531C464.573 23.3531 460.917 22.6927 460.905 25.4823C460.894 28.272 464.175 28.1239 464.175 28.1239L464.573 23.3531Z" fill="#F57F9A"/>
<path d="M474.051 36.0146C474.051 36.0146 477.684 39.4533 483.072 37.0053" stroke="#3F327A" stroke-width="0.4427" stroke-miterlimit="10"/>
</svg>
